<?xml version="1.0" encoding="UTF-8" standalone="no"?>
<svg width="43px" height="27px" viewBox="0 0 43 27" version="1.1" xmlns="http://www.w3.org/2000/svg" xmlns:xlink="http://www.w3.org/1999/xlink">
    <!-- Generator: Sketch 3.8.3 (29802) - http://www.bohemiancoding.com/sketch -->
    <title>PIZZA</title>
    <desc>Created with Sketch.</desc>
    <defs>
        <polygon id="path-1" points="11.3087255 0.42362069 0.0546191489 0.42362069 0.0546191489 8.18267586 11.3087255 8.18267586 11.3087255 0.42362069"></polygon>
    </defs>
    <g id="HOME" stroke="none" stroke-width="1" fill="none" fill-rule="evenodd">
        <g id="-HOME" transform="translate(-729.000000, -43.000000)">
            <g id="HEADER">
                <g id="PIZZA" transform="translate(729.000000, 43.000000)">
                    <polygon id="Fill-1" fill="#C3996B" points="0 26.5765655 42.802383 26.5765655 42.802383 23.3626345 0 23.3626345"></polygon>
                    <g id="Group-17" transform="translate(1.829787, 0.507600)">
                        <path d="M18.1683234,21.2559828 C14.5307064,20.6256724 13.5005362,18.2152241 15.2150468,15.6064655 C15.7557489,14.7843621 15.926834,13.7620862 16.3028553,12.7323621 C17.2159191,13.2621207 17.4400681,14.2313276 17.4007277,15.3457759 C17.5306426,15.3308793 17.6605574,15.3159828 17.7895574,15.3010862 C17.7520468,14.6083966 17.8133447,13.8998793 17.6605574,13.242569 C17.1061319,10.8656379 17.7538766,9.24005172 19.8361745,8.20008621 C18.8865149,10.4513276 19.6467915,12.2733621 21.4857277,14.0292931 C21.7382383,12.8738793 22.2130681,11.9912586 23.4399404,11.5443621 C23.0520255,13.1010517 23.6256638,14.432431 24.2514511,15.8010517 C25.3447489,18.1947414 24.5917915,19.9450862 21.6494936,21.1005 C23.0474511,19.560569 21.3118979,18.6993621 21.1801532,17.4797069 C21.0621319,17.8949483 20.9431957,18.3111207 20.7885787,18.8529828 C20.0438553,17.6901207 21.4994511,16.1259828 20.0841106,15.3346034 C19.7364511,16.2200172 19.3814723,17.1240517 18.9313447,18.2710862 C18.5644723,17.591431 18.3814936,17.2534655 18.1994298,16.916431 C18.1042809,18.3548793 16.3193234,19.6918448 18.1683234,21.2559828" id="Fill-2" fill="#C3996B"></path>
                        <g id="Group-6" transform="translate(8.234043, 0.000000)">
                            <mask id="mask-2" fill="white">
                                <use xlink:href="#path-1"></use>
                            </mask>
                            <g id="Clip-5"></g>
                            <path d="M11.3087255,0.423434483 C7.09381064,0.423434483 3.2009383,1.83953793 0.0546191489,4.23043448 L3.45253404,8.18267586 C5.68304468,6.59712414 8.39021489,5.66702069 11.3087255,5.66608966 L11.3087255,0.423434483 Z" id="Fill-4" fill="#C3996B" mask="url(#mask-2)"></path>
                        </g>
                        <path d="M7.76708085,4.64251034 C5.08369787,6.83416552 2.99408085,9.75761379 1.7836766,13.1186483 L6.56765532,14.9611655 C7.48071915,12.410131 9.08727234,10.2035793 11.1531021,8.58078621 L7.76708085,4.64251034 Z" id="Fill-7" fill="#C3996B"></path>
                        <path d="M31.9439681,5.17152414 L28.5003085,9.04835172 C30.1096064,10.4551448 31.4005213,12.2343517 32.2467979,14.2556276 L36.9484362,12.2008345 C35.8130532,9.48221379 34.0903085,7.08293793 31.9439681,5.17152414" id="Fill-9" fill="#C3996B"></path>
                        <path d="M32.490983,14.878769 C33.0554723,16.4261483 33.3647064,18.1001483 33.3647064,19.8495621 C33.3647064,20.5748379 33.3107277,21.2880103 33.2091745,21.9834931 L38.3591106,21.9834931 C38.433217,21.2833552 38.4734723,20.5711138 38.4734723,19.8495621 C38.4734723,17.3720793 38.0196851,15.0025966 37.1962809,12.8230448 L32.490983,14.878769 Z" id="Fill-11" fill="#C3996B"></path>
                        <path d="M6.35732128,15.5972483 L1.56876809,13.752869 C0.951214894,15.6708 0.61636383,17.7200069 0.61636383,19.8502138 C0.61636383,20.5708345 0.655704255,21.2830759 0.730725532,21.9841448 L5.8806617,21.9841448 C5.77819362,21.287731 5.72512979,20.5754897 5.72512979,19.8502138 C5.72512979,18.3680069 5.94653404,16.9398 6.35732128,15.5972483" id="Fill-13" fill="#C3996B"></path>
                        <path d="M20.2020404,0.436282759 L20.2020404,5.68266207 C23.1287851,5.82324828 25.8158277,6.8985931 27.9896149,8.62286897 L31.4396787,4.73952414 C28.3473383,2.17266207 24.4526362,0.585248276 20.2020404,0.436282759" id="Fill-15" fill="#C3996B"></path>
                    </g>
                </g>
            </g>
        </g>
    </g>
</svg>