<?xml version="1.0" encoding="UTF-8" standalone="no"?>
<svg width="33px" height="29px" viewBox="0 0 33 29" version="1.1" xmlns="http://www.w3.org/2000/svg" xmlns:xlink="http://www.w3.org/1999/xlink">
    <!-- Generator: Sketch 3.8.3 (29802) - http://www.bohemiancoding.com/sketch -->
    <title>CONTACT</title>
    <desc>Created with Sketch.</desc>
    <defs></defs>
    <g id="HOME" stroke="none" stroke-width="1" fill="none" fill-rule="evenodd">
        <g id="-HOME" transform="translate(-1227.000000, -41.000000)" fill="#BD9B68">
            <g id="HEADER">
                <g id="CONTACT" transform="translate(1227.000000, 41.000000)">
                    <g id="Group-3" transform="translate(0.000000, 4.940800)">
                        <path d="M5.3431,11.4728 C6.2221,11.6058 6.4851,12.2758 5.9281,12.9708 L3.0801,16.5228 C2.5241,17.2168 2.6351,17.3288 3.3301,16.7728 L6.8481,13.9558 C7.5421,13.3988 8.1701,13.6668 8.2511,14.5538 L9.1831,23.3748 C9.2631,24.2088 9.3931,24.2088 9.4741,23.3748 L10.4061,14.5538 C10.4871,13.6668 11.1151,13.4008 11.8091,13.9558 L15.3271,16.7728 C16.0221,17.3288 16.1331,17.2168 15.5781,16.5228 L12.7291,12.9708 C12.201106,12.3131731 12.4081888,11.6779297 13.1775203,11.4988348 C13.2212415,11.4886568 13.2667787,11.479952 13.3141,11.4728 L17.9971,10.7648 C18.8771,10.6318 18.8771,10.4158 17.9971,10.2828 L13.3141,9.5758 C12.4341,9.4418 12.1711,8.7718 12.7291,8.0778 L15.5781,4.5248 C16.1331,3.8298 16.0221,3.7198 15.3291,4.2748 L11.7361,7.1598 C11.0431,7.7158 10.3891,7.4518 10.2771,6.5688 L9.5321,0.7308 C9.4201,-0.1512 9.2371,-0.1512 9.1241,0.7308 L8.3801,6.5698 C8.2671,7.4528 7.6141,7.7168 6.9201,7.1598 L3.3281,4.2758 C2.6351,3.7208 2.5241,3.8308 3.0801,4.5248 L5.9281,8.0778 C6.4851,8.7718 6.2221,9.4418 5.3431,9.5758 L0.6601,10.2828 C-0.2199,10.4158 -0.2199,10.6318 0.6601,10.7648 L5.3431,11.4728 Z" id="Fill-1"></path>
                    </g>
                    <g id="Group-6" transform="translate(21.000000, 6.940800)">
                        <path d="M2.2743,3.1029 L3.9973,5.2519 C4.3323,5.6709 4.1753,6.0759 3.6413,6.1569 L0.8103,6.5849 C0.2783,6.6649 0.2783,6.7969 0.8103,6.8759 L3.6413,7.3049 C4.1753,7.3849 4.3323,7.7899 3.9973,8.2099 L2.2743,10.3579 C1.9383,10.7779 2.0043,10.8459 2.4253,10.5099 L4.5523,8.8069 C4.9733,8.4689 5.3523,8.6309 5.4013,9.1669 L5.9653,15.3829 C6.0133,15.9189 6.0923,15.9189 6.1413,15.3829 L6.7043,9.1669 C6.7533,8.6309 7.1333,8.4699 7.5533,8.8069 L9.6803,10.5099 C10.1003,10.8459 10.1683,10.7779 9.8313,10.3579 L8.1083,8.2099 C7.7723,7.7899 7.9313,7.3849 8.4623,7.3049 L11.2953,6.8759 C11.8283,6.7969 11.8283,6.6649 11.2953,6.5849 L8.4623,6.1569 C7.9313,6.0759 7.7723,5.6709 8.1083,5.2519 L9.8313,3.1019 C10.1683,2.6819 10.1013,2.6159 9.6813,2.9519 L7.5093,4.6959 C7.0893,5.0319 6.6933,4.8729 6.6263,4.3389 L6.1753,0.8079 C6.1073,0.2739 5.9973,0.2739 5.9303,0.8079 L5.4793,4.3389 C5.4113,4.8729 5.0153,5.0319 4.5963,4.6959 L2.4233,2.9529 C2.0043,2.6159 1.9373,2.6819 2.2743,3.1029" id="Fill-4"></path>
                    </g>
                    <path d="M16.2948,4.3535 L18.2008,4.6425 C18.5588,4.6955 18.6658,4.9685 18.4398,5.2515 L17.2798,6.6975 C17.0528,6.9815 17.0998,7.0255 17.3808,6.7985 L18.8138,5.6535 C19.0958,5.4275 19.3518,5.5355 19.3848,5.8955 L19.7648,10.0795 C19.7968,10.4405 19.8498,10.4405 19.8838,10.0795 L20.2618,5.8965 C20.2948,5.5355 20.5508,5.4275 20.8338,5.6535 L22.2658,6.7985 C22.5488,7.0255 22.5928,6.9815 22.3668,6.6975 L21.2078,5.2515 C20.9818,4.9685 21.0878,4.6955 21.4458,4.6425 L23.3518,4.3535 C23.7098,4.3005 23.7098,4.2125 23.3518,4.1585 L21.4458,3.8705 C21.0878,3.8165 20.9818,3.5425 21.2078,3.2595 L22.3668,1.8145 C22.5928,1.5315 22.5488,1.4865 22.2658,1.7125 L20.8038,2.8865 C20.5208,3.1125 20.2558,3.0055 20.2098,2.6465 L19.9068,0.2695 C19.8608,-0.0895 19.7868,-0.0895 19.7408,0.2695 L19.4378,2.6465 C19.3918,3.0065 19.1258,3.1125 18.8438,2.8865 L17.3808,1.7135 C17.0988,1.4865 17.0528,1.5315 17.2798,1.8155 L18.4398,3.2595 C18.6658,3.5425 18.5588,3.8165 18.2008,3.8705 L16.2948,4.1585 C15.9368,4.2125 15.9368,4.3005 16.2948,4.3535" id="Fill-7"></path>
                </g>
            </g>
        </g>
    </g>
</svg>