<?xml version="1.0" encoding="UTF-8" standalone="no"?>
<svg width="24px" height="24px" viewBox="0 0 24 24" version="1.1" xmlns="http://www.w3.org/2000/svg" xmlns:xlink="http://www.w3.org/1999/xlink">
    <!-- Generator: Sketch 3.8.3 (29802) - http://www.bohemiancoding.com/sketch -->
    <title>Group 3</title>
    <desc>Created with Sketch.</desc>
    <defs></defs>
    <g id="HOME" stroke="none" stroke-width="1" fill="none" fill-rule="evenodd">
        <g id="-HOME" transform="translate(-730.000000, -2939.000000)" fill="#BD9B68">
            <g id="FOOTER" transform="translate(0.000000, 2716.000000)">
                <g id="SOCIAL-MEDIA" transform="translate(730.000000, 222.000000)">
                    <g id="Group-3" transform="translate(0.000000, 0.573800)">
                        <path d="M0.1026,22.8787 C-0.0134,22.5527 0.0016,22.1787 0.0176,21.8287 C0.1156,19.7097 0.0646,17.5837 0.0646,15.4637 L0.0646,7.7367 L0.0646,4.5677 C0.0646,4.0797 0.0716,3.5917 0.0676,3.1037 C0.0636,2.5797 -0.0754,2.0277 0.0566,1.5117 C0.1466,1.1607 0.3726,0.8467 0.6776,0.6497 C1.1396,0.3527 1.6636,0.4367 2.1826,0.4377 L4.1126,0.4377 L7.9726,0.4377 L15.6916,0.4377 L16.5416,0.4377 L19.6286,0.4377 C20.1426,0.4377 20.6576,0.4307 21.1716,0.4377 C21.8576,0.4457 22.6856,0.2947 23.1776,0.9107 C23.4076,1.1987 23.4716,1.5857 23.4746,1.9547 C23.5116,6.9517 23.4606,11.9557 23.4606,16.9547 L23.4606,20.1277 C23.4606,20.6447 23.4576,21.1617 23.4606,21.6777 C23.4636,22.1237 23.5286,22.5917 23.3566,23.0157 C22.8966,24.1507 21.3416,23.8327 20.3856,23.8327 L16.1826,23.8327 C16.1926,23.6267 16.2116,23.4197 16.2116,23.2127 C16.2146,20.6147 16.2136,18.0167 16.2136,15.4177 L16.2136,14.7807 C17.1566,14.7807 18.0216,14.7897 18.8856,14.7717 C19.0206,14.7687 19.2586,14.6557 19.2716,14.5677 C19.4336,13.4797 19.5626,12.3867 19.7086,11.2297 L16.2166,11.2297 C16.2166,10.4097 16.1976,9.6507 16.2206,8.8917 C16.2546,7.7447 16.6996,7.3167 17.8606,7.2897 C18.4966,7.2757 19.1326,7.2877 19.7956,7.2877 L19.7956,4.1037 C19.2886,4.0617 18.8096,3.9997 18.3296,3.9867 C17.6896,3.9707 17.0416,3.9357 16.4086,4.0077 C14.2856,4.2477 12.9106,5.5627 12.6496,7.6687 C12.5266,8.6597 12.5806,9.6717 12.5526,10.6747 C12.5476,10.8557 12.5356,11.0377 12.5256,11.2557 L9.5526,11.2557 L9.5526,14.7967 L12.5426,14.7967 L12.5426,23.8327 L6.5126,23.8327 C5.6646,23.8327 4.8166,23.8137 3.9696,23.8157 C3.0726,23.8177 2.1636,23.9217 1.2776,23.7317 C0.9566,23.6627 0.6336,23.5487 0.3926,23.3257 C0.2526,23.1947 0.1606,23.0427 0.1026,22.8787" id="Fill-1"></path>
                    </g>
                </g>
            </g>
        </g>
    </g>
</svg>