<?xml version="1.0" encoding="UTF-8" standalone="no"?>
<svg width="24px" height="24px" viewBox="0 0 24 24" version="1.1" xmlns="http://www.w3.org/2000/svg" xmlns:xlink="http://www.w3.org/1999/xlink">
    <!-- Generator: Sketch 3.8.3 (29802) - http://www.bohemiancoding.com/sketch -->
    <title>Group 2</title>
    <desc>Created with Sketch.</desc>
    <defs></defs>
    <g id="HOME" stroke="none" stroke-width="1" fill="none" fill-rule="evenodd">
        <g id="-HOME" transform="translate(-778.000000, -2939.000000)" fill="#BD9B68">
            <g id="Group-2" transform="translate(778.000000, 2939.000000)">
                <path d="M17.1196,8.5655 L23.8856,8.5655 C23.8926,8.6465 23.9026,8.7045 23.9026,8.7635 C23.8976,12.1695 23.8616,15.5765 23.8996,18.9835 C23.9226,21.0865 22.4516,22.9305 20.4766,23.4575 C20.2376,23.5215 19.9836,23.5615 19.7356,23.5615 C14.8246,23.5675 9.9126,23.5585 5.0016,23.5735 C4.2186,23.5765 3.5306,23.3305 2.8806,22.9505 C1.7366,22.2835 1.0416,21.2595 0.7446,19.9905 C0.6246,19.4795 0.6476,18.9295 0.6456,18.3965 C0.6296,15.3025 0.6246,12.2095 0.6166,9.1165 C0.6156,8.5815 0.6176,8.5585 1.1456,8.5575 C3.1686,8.5545 5.1926,8.5675 7.2166,8.5745 C7.2526,8.5755 7.2886,8.5845 7.3646,8.5945 C7.2916,8.7315 7.2296,8.8505 7.1646,8.9665 C6.8156,9.5895 6.5116,10.2345 6.4116,10.9465 C5.9196,14.4875 8.0046,17.1575 10.9636,17.8085 C14.1876,18.5175 17.0346,16.6295 17.9206,13.7775 C18.4176,12.1755 18.2546,10.6085 17.4346,9.1275 C17.3396,8.9555 17.2426,8.7835 17.1196,8.5655" id="Fill-4"></path>
                <path d="M17.8881,4.1982 L17.8801,4.1982 C17.8801,4.6102 17.8721,5.0222 17.8821,5.4342 C17.8911,5.8492 18.0901,6.0942 18.5061,6.1072 C19.3601,6.1352 20.2151,6.1422 21.0681,6.1152 C21.5501,6.1002 21.7271,5.9132 21.7431,5.4222 C21.7721,4.5612 21.7701,3.6982 21.7511,2.8372 C21.7421,2.4102 21.5481,2.2242 21.1181,2.2162 C20.2641,2.2012 19.4091,2.2002 18.5551,2.2222 C18.0401,2.2362 17.9171,2.3712 17.8921,2.8932 C17.8721,3.3272 17.8881,3.7632 17.8881,4.1982 L17.8881,4.1982 Z M3.5031,5.9612 L3.5031,5.6322 C3.5031,4.0432 3.5081,2.4542 3.4971,0.8652 C3.4951,0.6182 3.5561,0.4782 3.8071,0.4392 C3.9021,0.4242 3.9951,0.3892 4.1511,0.3462 C4.2151,2.2352 4.1591,4.0922 4.1881,5.9622 L5.1421,5.9622 L5.1421,0.2032 L5.7701,0.2032 L5.7701,0.5122 C5.7701,2.2462 5.7741,3.9802 5.7651,5.7142 C5.7641,5.9262 5.8231,5.9962 6.0341,5.9802 C6.2591,5.9632 6.4871,5.9762 6.7321,5.9762 L6.7321,0.2132 C6.7991,0.2032 6.8501,0.1892 6.9001,0.1892 C11.2231,0.1992 15.5471,0.1992 19.8701,0.2362 C20.2931,0.2402 20.7331,0.4322 21.1331,0.6072 C22.5241,1.2172 23.4041,2.2902 23.7781,3.7482 C23.9031,4.2362 23.8981,4.7622 23.9101,5.2712 C23.9301,6.1182 23.9161,6.9652 23.9161,7.8362 C23.8621,7.8402 23.7971,7.8512 23.7321,7.8512 C21.3711,7.8522 19.0111,7.8532 16.6501,7.8472 C16.5491,7.8472 16.4251,7.7982 16.3511,7.7292 C15.2201,6.6702 13.8871,6.1232 12.3341,6.0992 C10.8291,6.0752 9.5151,6.5692 8.3801,7.5372 C8.1061,7.7702 7.8371,7.8632 7.4781,7.8602 C5.2851,7.8442 3.0931,7.8522 0.9001,7.8522 L0.6041,7.8522 C0.6041,7.5672 0.6001,7.3022 0.6041,7.0372 C0.6161,6.2812 0.6381,5.5252 0.6431,4.7692 C0.6521,3.4032 1.2071,2.2902 2.1941,1.3732 C2.3001,1.2752 2.4081,1.1802 2.5721,1.0312 L2.5721,5.9612 L3.5031,5.9612 Z" id="Fill-6"></path>
                <path d="M12.1783,8.6671 C10.4583,8.6431 8.9283,10.1771 8.8993,11.9541 C8.8693,13.8051 10.3943,15.4001 12.2603,15.3881 C14.0373,15.3761 15.5563,14.0641 15.6373,12.0951 C15.7053,10.4341 14.3243,8.6061 12.1783,8.6671 M16.8343,12.0641 C16.8493,14.4981 14.7913,16.5831 12.3593,16.5991 C9.7153,16.6151 7.6903,14.6181 7.6683,11.9721 C7.6483,9.5761 9.7563,7.4391 12.1513,7.4291 C14.7933,7.4181 16.8183,9.4221 16.8343,12.0641" id="Fill-8"></path>
            </g>
        </g>
    </g>
</svg>