<?xml version="1.0" encoding="UTF-8" standalone="no"?>
<svg width="25px" height="28px" viewBox="0 0 25 28" version="1.1" xmlns="http://www.w3.org/2000/svg" xmlns:xlink="http://www.w3.org/1999/xlink">
    <!-- Generator: Sketch 3.8.3 (29802) - http://www.bohemiancoding.com/sketch -->
    <title>EVENTS</title>
    <desc>Created with Sketch.</desc>
    <defs></defs>
    <g id="HOME" stroke="none" stroke-width="1" fill="none" fill-rule="evenodd">
        <g id="-HOME" transform="translate(-905.000000, -42.000000)" fill="#C3996B">
            <g id="HEADER">
                <g id="EVENTS" transform="translate(905.000000, 42.000000)">
                    <path d="M11.0603,8.4115 L11.0603,8.4115 L11.0603,8.4125 L11.0603,8.4115 Z M13.8323,20.2735 L13.0063,15.5485 C13.1203,15.5475 13.2313,15.5465 13.3433,15.5565 C13.8193,15.5965 14.1823,15.7045 14.4863,15.8965 C14.7313,16.0505 14.9273,16.2585 15.0693,16.5145 C15.2203,16.7885 15.3123,17.0955 15.3593,17.4795 C15.3863,17.6985 15.3953,17.9175 15.3863,18.1285 C15.3683,18.5475 15.2813,18.9015 15.1203,19.2115 C14.9273,19.5805 14.6303,19.8765 14.2343,20.0915 C14.1093,20.1595 13.9763,20.2205 13.8323,20.2735 L13.8323,20.2735 Z M11.6123,6.8405 C11.6183,6.3685 11.6583,5.9325 11.7353,5.5105 C11.8123,5.0855 11.9163,4.7065 12.0523,4.3505 C12.2043,3.9535 12.3573,3.6485 12.5343,3.3885 C12.7263,3.1065 12.9123,2.9225 13.1363,2.7905 C13.3173,2.6845 13.5143,2.6305 13.7233,2.6305 C13.7573,2.6305 13.7913,2.6325 13.8263,2.6355 C14.0123,2.6505 14.1563,2.7315 14.2673,2.8835 C14.3733,3.0285 14.4223,3.1985 14.4523,3.3305 C14.5033,3.5455 14.5223,3.7555 14.5103,3.9555 C14.4983,4.1595 14.4483,4.3715 14.3563,4.6045 C14.2113,4.9745 13.9873,5.3505 13.6503,5.7875 C13.3813,6.1365 13.1193,6.4345 12.8483,6.6995 C12.6373,6.9055 12.3953,7.1245 12.1103,7.3695 C11.9673,7.4915 11.8163,7.6075 11.6663,7.7225 L11.6493,7.7355 C11.6413,7.6645 11.6353,7.5955 11.6313,7.5255 C11.6183,7.2975 11.6093,7.0695 11.6123,6.8405 L11.6123,6.8405 Z M11.3943,11.0615 L11.4323,11.0365 L11.8383,13.2825 L11.8163,13.2885 C11.3073,13.4215 10.8343,13.6625 10.4093,14.0045 C10.0433,14.2995 9.7453,14.6335 9.5233,14.9965 C9.2533,15.4415 9.1023,15.8645 9.0643,16.2905 C9.0373,16.6045 9.0703,16.9255 9.1663,17.2745 C9.3173,17.8185 9.5953,18.3055 9.9933,18.7245 C10.1833,18.9245 10.4203,19.1025 10.7153,19.2665 C10.8293,19.3305 10.9453,19.3905 11.0633,19.4515 L11.3433,19.5965 L11.7483,19.1765 L11.4913,19.0215 C11.4443,18.9945 11.3983,18.9675 11.3533,18.9375 C11.1403,18.7975 10.9483,18.6055 10.7523,18.3315 C10.5703,18.0795 10.4653,17.8565 10.4223,17.6315 C10.3393,17.2025 10.4003,16.8235 10.6083,16.4705 C10.7223,16.2765 10.8733,16.1105 11.0543,15.9765 C11.2583,15.8245 11.5003,15.7165 11.7733,15.6535 C11.9353,15.6165 12.0853,15.5945 12.2303,15.5865 C12.2843,15.8835 12.3353,16.1805 12.3863,16.4775 L12.4303,16.7315 C12.5053,17.1675 12.5823,17.6035 12.6603,18.0385 L13.1033,20.4855 C13.0553,20.4945 13.0083,20.5035 12.9613,20.5105 C12.6123,20.5635 12.2673,20.5875 11.9283,20.5825 C11.1893,20.5705 10.5273,20.4385 9.9053,20.1775 C9.4213,19.9745 8.9823,19.7035 8.5633,19.3495 C8.1743,19.0205 7.8743,18.6725 7.6453,18.2875 C7.4293,17.9235 7.2843,17.5235 7.2143,17.0985 C7.1753,16.8605 7.1663,16.6185 7.1863,16.3785 C7.2053,16.1565 7.2563,15.9225 7.3423,15.6605 C7.4333,15.3785 7.5553,15.0975 7.7123,14.8025 C7.9993,14.2675 8.2973,13.8205 8.6273,13.4355 C8.9063,13.1085 9.2373,12.7785 9.6703,12.3985 C10.1483,11.9795 10.5523,11.6515 10.9433,11.3665 C11.0893,11.2605 11.2423,11.1605 11.3943,11.0615 L11.3943,11.0615 Z M16.9673,16.3585 C16.8933,15.8725 16.7413,15.4205 16.5133,15.0145 C16.2783,14.5965 15.9533,14.2215 15.5463,13.8985 C15.2233,13.6425 14.8933,13.4635 14.5353,13.3495 C14.1193,13.2175 13.6513,13.1475 13.1063,13.1335 C12.9583,13.1305 12.8093,13.1355 12.6563,13.1415 L12.6023,13.1435 L12.1233,10.5585 L12.1633,10.5285 C12.2463,10.4685 12.3273,10.4085 12.4093,10.3505 C12.7073,10.1385 13.0503,9.8765 13.3283,9.5425 L13.5583,9.2685 C13.7683,9.0195 13.9783,8.7705 14.1753,8.5135 C14.3463,8.2915 14.4863,8.0505 14.6243,7.8125 C14.8673,7.3935 15.0403,7.0345 15.1693,6.6835 C15.3663,6.1435 15.4803,5.5355 15.5143,4.8245 C15.5273,4.5475 15.5363,4.2195 15.5043,3.8865 C15.4833,3.6595 15.4453,3.4285 15.3943,3.2015 C15.3133,2.8455 15.1973,2.4775 15.0403,2.0775 C14.9003,1.7195 14.7233,1.2975 14.4863,0.8825 C14.3643,0.6685 14.2493,0.5025 14.1253,0.3605 C14.0463,0.2695 13.9343,0.1545 13.7783,0.0725 C13.6893,0.0265 13.5953,0.0025 13.4943,0.0005 L13.4773,0.0005 C13.2993,0.0005 13.1533,0.0605 13.0463,0.1145 C12.8043,0.2355 12.6203,0.4075 12.4723,0.5595 C12.2633,0.7755 12.0683,1.0205 11.8403,1.3565 C11.5633,1.7665 11.3443,2.1405 11.1723,2.5015 C11.0093,2.8425 10.9053,3.1285 10.8433,3.4015 C10.8113,3.5435 10.7823,3.6875 10.7633,3.8315 C10.7253,4.1085 10.6923,4.3865 10.6643,4.6645 C10.6503,4.7865 10.6453,4.9095 10.6403,5.0315 L10.6353,5.1615 C10.6293,5.2925 10.6233,5.4235 10.6263,5.5545 C10.6293,5.6915 10.6373,5.8275 10.6453,5.9635 L10.6623,6.2675 C10.6673,6.3805 10.6723,6.4935 10.6823,6.6055 C10.7033,6.8305 10.7283,7.0555 10.7583,7.2795 C10.7813,7.4615 10.8103,7.6445 10.8383,7.8265 L10.9143,8.2985 C10.4353,8.6365 9.8863,9.0285 9.3683,9.4475 C8.9773,9.7645 8.5903,10.0845 8.2123,10.4135 C7.9423,10.6475 7.7093,10.9095 7.5183,11.1335 C7.0473,11.6825 6.6453,12.3005 6.3203,12.9695 C6.1423,13.3365 6.0003,13.7155 5.8973,14.0975 C5.8143,14.4075 5.7643,14.6895 5.7453,14.9615 L5.7393,15.0315 C5.7283,15.1875 5.7153,15.3485 5.7343,15.5165 C5.7453,15.6165 5.7513,15.7165 5.7573,15.8175 C5.7633,15.9255 5.7703,16.0345 5.7823,16.1435 C5.8183,16.4555 5.8753,16.7705 5.9533,17.0815 C6.0693,17.5445 6.2233,17.9475 6.4233,18.3135 C6.6423,18.7145 6.9273,19.0825 7.2943,19.4395 C7.6403,19.7755 8.0373,20.0805 8.5093,20.3735 C8.8043,20.5555 9.1353,20.7345 9.5193,20.9185 C9.7323,21.0215 9.9903,21.1355 10.2793,21.2075 C10.7993,21.3355 11.3313,21.3625 11.7893,21.3785 C12.0273,21.3855 12.2673,21.3775 12.5063,21.3665 C12.6843,21.3585 12.8613,21.3445 13.0393,21.3295 L13.2113,21.3155 C13.2223,21.3145 13.2333,21.3135 13.2433,21.3125 L13.4243,22.3685 C13.4673,22.6315 13.5113,22.8945 13.5613,23.1575 C13.6453,23.6045 13.6943,23.9745 13.7143,24.3195 C13.7373,24.7065 13.7273,25.0015 13.6813,25.2765 C13.6403,25.5225 13.5543,25.7285 13.4193,25.9075 C13.0963,26.3355 12.6763,26.6455 12.1363,26.8555 C11.8903,26.9515 11.6203,27.0015 11.3123,27.0075 C11.2103,27.0095 11.1083,27.0005 11.0063,26.9925 L10.8813,26.9815 C10.5963,26.9615 10.3503,26.9035 10.1303,26.8055 C10.0563,26.7725 9.9903,26.7345 9.9323,26.6935 C10.3583,26.5575 10.6853,26.3905 10.9533,26.1735 C11.2153,25.9605 11.3923,25.7055 11.4793,25.4155 C11.5413,25.2075 11.5623,25.0105 11.5433,24.8125 C11.5313,24.6875 11.5143,24.5525 11.4683,24.4175 C11.3733,24.1415 11.2013,23.9055 10.9413,23.6955 C10.4793,23.3215 9.9463,23.1815 9.3613,23.2765 C8.9373,23.3455 8.5903,23.5235 8.3293,23.8065 C8.1133,24.0395 7.9603,24.2995 7.8713,24.5775 C7.7573,24.9375 7.7353,25.3265 7.8043,25.7345 C7.8803,26.1745 8.1113,26.5575 8.4903,26.8735 C8.7823,27.1145 9.1153,27.2715 9.3733,27.3815 C9.8503,27.5855 10.3423,27.7065 10.8333,27.7415 C10.9463,27.7495 11.0583,27.7535 11.1683,27.7535 C11.4673,27.7535 11.7553,27.7235 12.0293,27.6645 C12.4253,27.5785 12.7873,27.4345 13.1023,27.2365 C13.4513,27.0175 13.7483,26.7385 13.9863,26.4065 C14.1203,26.2185 14.2183,26.0585 14.2963,25.9045 C14.4583,25.5805 14.4843,25.2375 14.4893,25.0075 C14.4953,24.7415 14.4963,24.4255 14.4513,24.1025 L14.4243,23.9135 C14.3923,23.6805 14.3593,23.4475 14.3233,23.2145 C14.2923,23.0135 14.2593,22.8125 14.2253,22.6125 L13.9873,21.1245 C14.4023,20.9555 14.7643,20.7625 15.0933,20.5365 C15.4143,20.3155 15.7003,20.0655 15.9443,19.7925 C16.2883,19.4075 16.5543,18.9905 16.7363,18.5525 C16.9283,18.0895 17.0253,17.5995 17.0253,17.0965 C17.0243,16.8575 17.0053,16.6085 16.9673,16.3585 L16.9673,16.3585 Z" id="Fill-1"></path>
                    <path d="M16.0619,2.4751 C16.1179,2.6581 16.1679,2.8381 16.2089,3.0161 C16.2679,3.2781 16.3109,3.5431 16.3359,3.8051 C16.3449,3.8921 16.3439,3.9741 16.3479,4.0591 C20.2319,5.6941 22.9669,9.5381 22.9669,14.0101 C22.9669,18.8711 19.7339,22.9891 15.3069,24.3341 C15.3239,24.5831 15.3289,24.8211 15.3239,25.0271 C15.3199,25.2301 15.2959,25.5041 15.2179,25.8001 C20.4639,24.4451 24.3499,19.6731 24.3499,14.0101 C24.3499,8.6561 20.8739,4.1011 16.0619,2.4751" id="Fill-3"></path>
                    <path d="M7.0753,24.3255 C7.1483,24.0945 7.2553,23.8755 7.3883,23.6675 C3.8363,21.8995 1.3833,18.2405 1.3833,14.0105 C1.3833,8.8115 5.0793,4.4605 9.9813,3.4435 C9.9973,3.3605 10.0133,3.2835 10.0283,3.2185 C10.1043,2.8815 10.2283,2.5395 10.4183,2.1405 C10.4483,2.0785 10.4873,2.0135 10.5193,1.9505 C4.5873,2.7615 0.0003,7.8585 0.0003,14.0105 C0.0003,18.8525 2.8423,23.0425 6.9453,25.0025 C6.9653,24.7715 7.0053,24.5445 7.0753,24.3255" id="Fill-5"></path>
                </g>
            </g>
        </g>
    </g>
</svg>