<?xml version="1.0" encoding="UTF-8" standalone="no"?>
<svg width="27px" height="27px" viewBox="0 0 27 27" version="1.1" xmlns="http://www.w3.org/2000/svg" xmlns:xlink="http://www.w3.org/1999/xlink">
    <!-- Generator: Sketch 3.8.3 (29802) - http://www.bohemiancoding.com/sketch -->
    <title>STORY</title>
    <desc>Created with Sketch.</desc>
    <defs></defs>
    <g id="HOME" stroke="none" stroke-width="1" fill="none" fill-rule="evenodd">
        <g id="-HOME" transform="translate(-1062.000000, -43.000000)" fill="#C3996B">
            <g id="HEADER">
                <g id="STORY" transform="translate(1062.000000, 42.000000)">
                    <g id="Group-3" transform="translate(0.000000, 0.301500)">
                        <path d="M24.8071,13.8492 C24.8071,20.2762 19.5781,25.5052 13.1501,25.5052 C6.7231,25.5052 1.4941,20.2762 1.4941,13.8492 C1.4941,7.4222 6.7231,2.1932 13.1501,2.1932 C19.5781,2.1932 24.8071,7.4222 24.8071,13.8492 M13.1501,0.6982 C5.8991,0.6982 0.0001,6.5982 0.0001,13.8492 C0.0001,21.1002 5.8991,27.0002 13.1501,27.0002 C20.4021,27.0002 26.3011,21.1002 26.3011,13.8492 C26.3011,6.5982 20.4021,0.6982 13.1501,0.6982" id="Fill-1"></path>
                    </g>
                    <path d="M13.1506,14.7838 C12.8006,14.7838 12.5176,14.5008 12.5176,14.1508 C12.5176,13.8008 12.8006,13.5178 13.1506,13.5178 C13.5006,13.5178 13.7836,13.8008 13.7836,14.1508 C13.7836,14.5008 13.5006,14.7838 13.1506,14.7838 M13.1506,11.3878 C11.6246,11.3878 10.3876,12.6248 10.3876,14.1508 C10.3876,15.6768 11.6246,16.9138 13.1506,16.9138 C14.6766,16.9138 15.9136,15.6768 15.9136,14.1508 C15.9136,12.6248 14.6766,11.3878 13.1506,11.3878" id="Fill-4"></path>
                    <path d="M12.7262,10.0188 L12.4152,3.7108 C8.5812,3.9788 5.3172,6.3138 3.7222,9.6108 L9.3892,12.4008 C9.9942,11.1058 11.2442,10.1698 12.7262,10.0188" id="Fill-6"></path>
                    <path d="M16.8323,16.0662 C16.1383,17.3942 14.7503,18.3042 13.1503,18.3042 C13.1453,18.3042 13.1403,18.3032 13.1343,18.3032 L13.4453,24.6132 C17.4033,24.5022 20.8133,22.1912 22.4993,18.8562 L16.8323,16.0662 Z" id="Fill-8"></path>
                    <path d="M17.3041,14.1507 C17.3041,14.6637 17.2061,15.1527 17.0351,15.6067 L23.0911,17.4417 C23.3891,16.5447 23.5621,15.5937 23.6051,14.6097 L17.3011,14.0937 C17.3011,14.1127 17.3041,14.1317 17.3041,14.1507" id="Fill-10"></path>
                    <path d="M9.0053,13.992 C9.0183,13.646 9.0723,13.31 9.1653,12.99 L3.1693,10.972 C2.9333,11.71 2.7833,12.485 2.7173,13.283 L9.0053,13.992 Z" id="Fill-12"></path>
                </g>
            </g>
        </g>
    </g>
</svg>