<?xml version="1.0" encoding="UTF-8" standalone="no"?>
<svg width="18px" height="29px" viewBox="0 0 18 29" version="1.1" xmlns="http://www.w3.org/2000/svg" xmlns:xlink="http://www.w3.org/1999/xlink">
    <!-- Generator: Sketch 3.8.3 (29802) - http://www.bohemiancoding.com/sketch -->
    <title>BEER</title>
    <desc>Created with Sketch.</desc>
    <defs>
        <polygon id="path-1" points="17.8614299 0.000322222222 0.00016631193 0.000322222222 0.00016631193 28.9238481 17.8614299 28.9238481 17.8614299 0.000322222222"></polygon>
    </defs>
    <g id="HOME" stroke="none" stroke-width="1" fill="none" fill-rule="evenodd">
        <g id="-HOME" transform="translate(-557.000000, -41.000000)">
            <g id="HEADER">
                <g id="BEER" transform="translate(557.000000, 41.000000)">
                    <mask id="mask-2" fill="white">
                        <use xlink:href="#path-1"></use>
                    </mask>
                    <g id="Clip-2"></g>
                    <path d="M15.2712,7.23614444 C15.216075,6.69266296 15.16545,6.19429259 15.1137,5.69592222 C15.00795,4.66588519 14.7762,3.65947778 14.493825,2.66058889 C14.435325,2.45436667 14.3217,2.43073704 14.131575,2.43073704 C12.62745,2.43610741 11.12445,2.43395926 9.620325,2.43395926 C7.678575,2.43395926 5.736825,2.43610741 3.795075,2.43181111 C3.594825,2.43073704 3.48345,2.4489963 3.437325,2.68421852 C3.309075,3.3437 3.093075,3.98921852 2.9862,4.65084815 C2.83095,5.6014037 2.694825,6.55947778 2.63745,7.51862593 C2.589075,8.33921852 2.64645,9.16732963 2.688075,9.99114444 C2.721825,10.6581444 2.7702,11.3283667 2.870325,11.9889222 C2.9907,12.7901815 3.135825,13.5925148 3.336075,14.378737 C3.6387,15.566663 4.015575,16.7374037 4.3272,17.9221074 C4.58145,18.8866259 4.8492,19.8532926 4.994325,20.8339222 C5.1237,21.7082185 5.12595,22.6050704 5.120325,23.4911815 C5.118075,24.0239222 5.014575,24.5588111 4.915575,25.0861815 C4.8312,25.5383667 4.688325,25.9798111 4.57245,26.4191074 C4.93695,26.3868852 5.2857,26.3471444 5.6367,26.3288852 C5.907825,26.3149222 6.0867,26.2558481 6.168825,25.9604778 C6.418575,25.0625519 6.582825,24.151737 6.61545,23.2291074 C6.63795,22.5986259 6.576075,21.9606259 6.5007,21.3322926 C6.423075,20.6921444 6.3207,20.0509222 6.1632,19.423663 C5.8662,18.234663 5.49045,17.0628481 5.2047,15.8717 C4.92345,14.6955889 4.67595,13.5108852 4.483575,12.319737 C4.3272,11.3487741 4.256325,10.3638481 4.184325,9.38321852 C4.143825,8.82147778 4.17195,8.25436667 4.179825,7.69047778 C4.182075,7.53903333 4.224825,7.38973704 4.2462,7.25225556 L9.735075,7.25225556 C9.735075,7.36073704 9.737325,7.45310741 9.73395,7.54547778 C9.714825,8.1909963 9.7182,8.83866296 9.667575,9.48203333 C9.627075,10.0061815 9.566325,10.5346259 9.438075,11.0448111 C9.253575,11.7751815 8.9847,12.4980333 9.208575,13.2520333 C9.30645,13.5785519 9.467325,13.9308481 9.7137,14.1639222 C10.18395,14.6075148 10.89945,14.4990333 11.30445,13.8062556 C11.70045,13.1263667 11.631825,12.4099593 11.492325,11.6914037 C11.395575,11.1941074 11.258325,10.7032556 11.172825,10.2048852 C11.1042,9.80318148 11.064825,9.39395926 11.0502,8.98581111 C11.02995,8.41010741 11.044575,7.83332963 11.044575,7.23614444 L15.2712,7.23614444 Z M3.4002,28.9238481 C3.0717,28.7552185 2.694825,28.6370704 2.424825,28.4072185 C1.691325,27.7821074 1.5822,27.0087741 1.882575,26.1291074 C2.132325,25.3965889 2.3337,24.644737 2.490075,23.8885889 C2.643075,23.1431815 2.535075,22.3902556 2.4552,21.6362556 C2.2347,19.540737 1.4247,17.5805519 0.930825,15.5484037 C0.7137,14.6526259 0.516825,13.7493296 0.36045,12.8428111 C0.237825,12.1307 0.174825,11.4078481 0.11745,10.6871444 C0.0567,9.91488519 -0.0243,9.13832963 0.0072,8.36714444 C0.05445,7.20714444 0.1827,6.05036667 0.29295,4.89466296 C0.40995,3.65947778 0.76545,2.47047778 1.1412,1.29007037 C1.2672,0.894811111 1.4472,0.514588889 1.6137,0.132218519 C1.637325,0.0774407407 1.716075,0.0323296296 1.7802,0.0108481481 C1.842075,-0.00955925926 1.91745,0.00547777778 1.9872,0.00547777778 C6.636825,0.00547777778 11.28645,0.00762592593 15.936075,0.000107407407 C16.181325,0.000107407407 16.2972,0.0570333333 16.372575,0.292255556 C16.635825,1.10855185 16.962075,1.90766296 17.19945,2.7304037 C17.389575,3.39418148 17.529075,4.07836667 17.61345,4.76147778 C17.733825,5.74855185 17.821575,6.74207037 17.85195,7.73558889 C17.882325,8.71084815 17.832825,9.68932963 17.8002,10.666737 C17.7822,11.1865889 17.7507,11.7085889 17.67645,12.2241444 C17.574075,12.9362556 17.46945,13.6515889 17.2872,14.348663 C16.7742,16.3099222 16.2027,18.2582926 15.69645,20.2206259 C15.53445,20.845737 15.501825,21.4998481 15.41295,22.1410704 C15.387075,22.324737 15.357825,22.5094778 15.35445,22.6942185 C15.337575,23.8262926 15.5772,24.9164778 15.97545,25.9798111 C16.1667,26.4932185 16.289325,27.0141444 16.1082,27.5544037 C15.873075,28.2536259 15.364575,28.6961444 14.635575,28.9238481 L13.260825,28.9238481 C13.191075,28.9055889 13.121325,28.8755148 13.05045,28.8690704 C12.7557,28.8454407 12.46095,28.8293296 12.1662,28.8099963 C11.0367,28.7348111 9.908325,28.6338481 8.7777,28.5951815 C8.151075,28.5747741 7.51995,28.6574778 6.88995,28.6993667 C6.3702,28.733737 5.85045,28.7691815 5.331825,28.8164407 C5.104575,28.8368481 4.8807,28.8873296 4.654575,28.9238481 L3.4002,28.9238481 Z" id="Fill-1" fill="#C3996B" mask="url(#mask-2)"></path>
                </g>
            </g>
        </g>
    </g>
</svg>