<?xml version="1.0" encoding="UTF-8" standalone="no"?>
<svg width="128px" height="128px" viewBox="0 0 128 128" version="1.1" xmlns="http://www.w3.org/2000/svg" xmlns:xlink="http://www.w3.org/1999/xlink">
    <!-- Generator: Sketch 3.8.3 (29802) - http://www.bohemiancoding.com/sketch -->
    <title>RSB LOGO ROUND</title>
    <desc>Created with Sketch.</desc>
    <defs>
        <polygon id="path-1" points="0.167559631 105.125719 102.078869 105.125719 102.078869 0.49601196 0.167559631 0.49601196 0.167559631 105.125719"></polygon>
    </defs>
    <g id="HOME" stroke="none" stroke-width="1" fill="none" fill-rule="evenodd">
        <g id="-HOME" transform="translate(-258.000000, -2798.000000)">
            <g id="FOOTER" transform="translate(0.000000, 2716.000000)">
                <g id="RSB-LOGO-ROUND" transform="translate(258.000000, 82.000000)">
                    <path d="M49.765104,95.5394278 L50.6999496,93.6391604 C51.3471094,93.962542 52.0251117,94.0249771 52.846691,93.5863307 C53.4943826,93.2405364 53.8846992,92.711706 53.8846992,92.1844765 L53.8846992,92.1588622 C53.8846992,91.6577807 53.6384913,91.5323769 52.4356355,91.7885208 C50.9876352,92.0990953 50.0522579,92.0958935 50.0522579,90.3108908 L50.0522579,90.2847427 C50.0522579,88.6523591 51.1003697,87.0146391 52.5696406,86.2301985 C53.6177525,85.6714846 54.5111202,85.6058478 55.2407039,85.9489738 L54.4191246,87.8780575 C53.7815365,87.6656715 53.1556473,87.6656715 52.5494335,87.9885195 C51.9432197,88.3119012 51.6246915,88.8289917 51.6246915,89.2660372 L51.6246915,89.2916515 C51.6246915,89.882917 51.9325843,89.9117332 53.1763862,89.6459839 C54.63449,89.3428803 55.4566011,89.560069 55.4566011,91.127883 L55.4566011,91.1529638 C55.4566011,92.9390337 54.3675433,94.5223231 52.8158485,95.3505217 C51.7267907,95.9311145 50.6276293,96.0415765 49.765104,95.5394278" id="Fill-1" fill="#FEFEFE"></path>
                    <polygon id="Fill-3" fill="#FEFEFE" points="57.941546 85.317259 55.7533268 86.4848482 55.7533268 84.6608903 61.7117707 81.4815043 61.7117707 83.3054622 59.5240832 84.4730514 59.5240832 91.6429457 57.941546 92.4871532"></polygon>
                    <path d="M65.6967758,83.7236705 C66.4673055,83.3122394 66.9092035,82.5624849 66.9092035,81.8047259 L66.9092035,81.7785779 C66.9092035,80.9306349 66.436463,80.7459978 65.6659334,81.1568953 L64.0940315,81.9957665 L64.0940315,84.5785507 L65.6967758,83.7236705 Z M62.5120261,81.0544378 L65.798875,79.3003858 C66.7140452,78.8126451 67.4223582,78.7550128 67.8950986,79.0938698 C68.2960506,79.381498 68.5119478,79.9727635 68.5119478,80.8212401 L68.5119478,80.8468545 C68.5119478,82.2988701 67.8855268,83.5449034 66.9708884,84.457416 L68.7273132,86.7317602 L66.878361,87.7184478 L65.3367699,85.6628931 L64.0940315,86.3261991 L64.0940315,89.2040824 L62.5120261,90.0482899 L62.5120261,81.0544378 Z" id="Fill-5" fill="#FEFEFE"></path>
                    <polygon id="Fill-7" fill="#FEFEFE" points="69.5271964 77.3112151 74.9522785 74.4162555 74.9522785 76.1767111 71.0990983 78.233333 71.0990983 80.057291 74.4891098 78.2482748 74.4891098 80.0087303 71.0990983 81.8172129 71.0990983 83.7057404 75.0033281 81.6229704 75.0033281 83.383426 69.5271964 86.3056008"></polygon>
                    <polygon id="Fill-9" fill="#FEFEFE" points="75.99821 73.8582354 81.4227603 70.9638095 81.4227603 72.7242651 77.5701119 74.7798197 77.5701119 76.6043113 80.9606552 74.7958287 80.9606552 76.5562843 77.5701119 78.3647669 77.5701119 80.2532944 81.4743417 78.1705244 81.4743417 79.93098 75.99821 82.8520876"></polygon>
                    <polygon id="Fill-11" fill="#FEFEFE" points="84.1440223 71.3364988 81.9558031 72.5040881 81.9558031 70.6801301 87.914247 67.5002105 87.914247 69.3247021 85.7265595 70.4922913 85.7265595 77.6621855 84.1440223 78.5063931"></polygon>
                    <path d="M49.9582948,66.2096723 C50.6437418,66.1472372 50.8883544,67.3105573 50.8883544,68.4157115 C50.8883544,70.8773609 49.7296352,74.5989181 47.9827822,74.5989181 C47.6695717,74.5989181 47.3451941,74.4788507 47.0117765,74.2429849 C47.415919,70.5886654 48.6373867,67.8628676 49.9582948,66.2096723 M72.5073224,69.4963185 C71.5395073,69.0704793 70.5536122,67.9754642 70.8173683,64.0303147 C71.1295153,59.3594242 72.2313355,55.7115084 73.7505925,53.8934205 C74.0521041,53.8427253 74.3541475,53.9425147 74.6062048,54.2045286 C75.0906441,54.7061437 75.8351172,56.2328679 75.3905604,60.8263816 C74.7965772,66.9668976 73.4033489,69.1067663 72.5073224,69.4963185 M95.9156846,56.6859224 C95.0483734,56.0893206 94.2996462,54.8064667 94.6144519,51.4515154 C95.1430279,45.8195518 97.0658956,41.5248726 98.4288132,41.4474958 C98.9658974,41.4170787 99.3822706,42.0601066 99.6423044,42.6225559 C99.6513444,42.7436906 99.6609162,42.8637581 99.6672974,42.9843591 C99.6848457,43.4742343 99.7066481,43.9518359 99.7337682,44.4128949 C99.8613922,49.8116609 98.6739576,54.214134 97.2131949,55.9927331 C96.8425537,56.4441867 96.4719124,56.6928597 96.1395583,56.7115368 C96.0629839,56.7152723 95.9896002,56.7056669 95.9156846,56.6859224 M109.68312,41.857326 C109.532098,41.6203929 109.363528,41.5003255 109.181132,41.5003255 C109.031174,41.5003255 108.766354,41.5830386 108.679145,42.1342816 C107.922973,46.9385804 105.627868,52.6249746 104.444688,52.6239073 C104.43033,52.6239073 104.416504,52.6159028 104.402147,52.6132347 C104.382471,52.592423 104.363859,52.5742795 104.344716,52.5486651 C102.618602,50.3223478 102.515439,38.5365273 107.686337,19.3054579 C108.035175,18.0113976 107.472035,16.3523323 106.403716,15.5294701 L105.319444,14.6932671 C105.142366,14.5561233 104.949334,14.4840829 104.761621,14.4840829 C104.407464,14.4840829 104.127755,14.7343568 104.033632,15.1351153 C101.741187,24.88726 100.573959,33.0854653 100.165031,39.4671834 C99.6816551,39.0642904 98.9557938,38.8604426 97.9948917,38.8604426 C97.8146229,38.8604426 97.6242505,38.8673798 97.4205839,38.8823215 C93.9497438,39.13473 91.9811441,41.8760032 90.6272666,48.3441699 C89.9715984,51.473928 90.0221163,53.9446492 90.7719071,55.7152438 C89.4876909,58.8215221 87.872716,61.4064408 87.0553908,61.4064408 C86.6703919,61.4064408 86.5087349,60.6187983 86.4454546,60.1513358 L86.3396331,59.3722314 C86.230621,56.8316043 86.9979601,52.4446066 89.3808058,47.0426388 C89.5323593,46.8804144 89.6748727,46.7117863 89.795052,46.5346201 C90.0072268,46.2197766 89.965749,45.990848 89.8939605,45.8547715 C89.7078423,45.5015064 89.1665039,45.4502777 88.8602064,45.4502777 L88.7634249,45.4513449 C88.0971215,45.4774929 86.8453431,45.7058879 86.3752615,46.3996109 C86.3008141,46.5111403 86.1933973,46.6386786 86.0774722,46.7598133 C85.9812225,46.8382573 85.8817821,46.9092305 85.779683,46.9786028 C85.7153392,47.0170244 85.6499319,47.0522442 85.5786752,47.087464 L85.5760164,47.0863967 L85.5451739,47.1024057 C85.4558371,47.0901322 85.3707545,47.087464 85.3165143,47.0922667 C85.0703064,47.00315 84.888974,46.8419928 84.7608183,46.6050597 C84.3481675,45.8371617 84.5130151,44.3638007 85.2500435,42.2191293 C85.3053472,42.0579721 85.2867354,41.8994831 85.1963351,41.7719447 C85.0442499,41.5595588 84.7140228,41.4517649 84.2077811,41.4517649 C83.2490061,41.4517649 81.7829258,41.8493215 81.5255508,42.5932061 C81.3782515,43.0233144 81.2617946,43.4246064 81.1602272,43.8104232 L81.1384248,43.7922796 L81.1245988,43.945966 C80.8911533,44.8712858 80.7848,45.6754708 80.8209601,46.351584 C80.317909,49.3207185 79.3437128,52.1756555 78.2376384,53.9964117 C78.1908429,53.9152994 78.1504287,53.8309854 78.0988473,53.7520077 C77.8999666,53.4425005 77.6750294,53.163944 77.4229721,52.9131365 L77.4660452,52.9179392 L77.113484,52.6388491 C77.0576485,52.592423 77.0023448,52.5475978 76.9454457,52.5043735 L76.8465372,52.4269967 C76.7896381,52.3811043 75.407577,51.2962282 73.5277823,51.0390171 C70.4477906,50.6142451 68.1978865,54.0209588 66.8817643,61.1342879 C66.5345208,63.0153446 66.4095557,64.6199793 66.5036783,65.9711383 C66.1335688,67.6334054 65.5672375,69.4136054 64.9067835,70.9088453 C62.3718525,76.6368629 58.558023,76.6389974 59.0137469,69.2150938 C59.3423786,63.8307359 60.4649377,60.1449322 62.1144775,58.7948404 C62.1341528,58.8177867 62.1559553,58.839132 62.1740353,58.8647464 C63.0679348,60.0867662 62.4537445,62.6103171 61.6566265,65.1562805 C61.5630356,65.456716 61.5981322,65.7400751 61.7555351,65.9556629 C61.9092156,66.1659144 62.1591459,66.2822464 62.4585304,66.2822464 L63.475268,66.2256813 C64.0937125,66.1909951 64.6786556,65.69525 64.8073431,65.0975809 C65.5906352,61.493423 65.4874725,59.0429798 64.4999821,57.8134892 C64.0336228,57.2323627 63.3779547,56.9383309 62.5643519,56.9324609 C61.7225655,56.9276582 60.3623068,57.2035465 59.387047,57.9250185 C56.5075313,60.0542145 54.4756514,67.6510153 55.4716501,73.0892701 C53.5418694,79.2468624 51.0218278,81.6322023 49.5153333,81.6322023 C47.8365464,81.6322023 46.7756722,79.4464412 46.8841525,76.0029068 C47.4435709,76.318284 48.1157238,76.5696251 48.8320133,76.5696251 C50.5235626,76.5696251 51.8524471,75.2456814 52.7856974,72.6346147 C53.2456754,71.3480253 54.631459,66.9887766 53.1685693,64.9017376 C52.9978722,64.6589345 52.7926103,64.4630912 52.5591648,64.3030012 L52.0832338,64.0441892 C52.0789797,64.0431219 52.0747255,64.0420546 52.0699396,64.041521 C52.0603678,64.0377856 52.0311207,64.0292474 51.9864523,64.0169739 C51.8226682,63.9588079 51.647717,63.9177181 51.4637258,63.8894356 C50.9936442,63.7912471 50.2933077,63.6818523 49.513738,63.6818523 C49.0750306,63.6818523 48.6554668,63.7160048 48.2672772,63.7875117 C45.9035751,64.2128172 43.2681402,67.7849572 42.8049715,73.7888631 C42.5050552,77.695591 43.0660689,80.3605546 44.5204503,81.9385077 C45.5238938,83.0260519 47.6041644,83.7112368 49.0144092,83.7112368 C52.6915747,83.7112368 55.9534305,78.7697944 57.2796563,76.1224406 C58.55111,76.9607782 59.9161547,77.3071061 61.2003708,77.2094512 C63.933119,76.9773208 66.4723041,73.6164996 68.0660084,70.0448933 C68.4430308,70.4253737 68.8838653,70.7306118 69.399147,70.9638095 C70.6631561,71.5358642 71.4772906,71.6788778 72.4950917,71.6788778 C73.6075473,71.6788778 76.4126157,70.8485447 78.4508768,63.1578246 C78.8858618,61.5131674 79.3968894,58.8844908 79.0570906,56.5194289 C81.395268,54.7669778 82.8294423,51.5144841 83.6058214,49.1734358 C83.752589,49.1857093 83.9025471,49.1921129 84.057823,49.1921129 C84.315198,49.1921129 84.5853354,49.1734358 84.863981,49.1398169 C82.6486417,56.9911606 81.5872357,61.5814724 83.7727961,63.496148 C84.3816688,64.0292474 85.0527581,64.5239253 85.8466855,64.5239253 C86.2407245,64.5239253 86.6512483,64.4086606 87.116544,64.1594539 C88.9378443,63.3627397 90.9532394,60.7906282 92.4953624,57.8962023 C94.8564057,59.6059627 98.6074868,60.2377843 101.235477,53.9505192 C101.339703,54.1698424 101.446056,54.3651521 101.559323,54.5215066 C102.168195,55.3609115 102.915859,55.8054278 103.724676,55.8054278 C104.15328,55.8054278 104.593051,55.6720196 105.034417,55.4265483 C105.681045,55.1373192 106.288322,54.5588609 106.844018,53.7626804 L106.892409,53.6997117 L106.888687,53.6970435 C108.431341,51.4403091 109.579425,47.5287786 110.077159,43.6476651 C110.14682,43.0969557 109.97506,42.3109142 109.68312,41.857326" id="Fill-13" fill="#FEFEFE"></path>
                    <path d="M97.8359467,78.3190879 C98.9547835,75.2549667 99.6620329,72.3962942 100.094891,69.893555 C100.173061,69.4437023 100.042778,69.1726167 99.7976334,69.2574643 C99.5551479,69.3407111 99.2658669,69.7457386 99.1541959,70.1870532 C98.5703163,72.4950163 97.7290616,75.0719305 96.5288646,77.7870557 C95.4015196,80.3314183 93.9630911,82.984642 92.1566803,85.5823679 C90.35346,88.1784929 88.1785349,90.7153846 85.6441357,93.0014688 C83.1070776,95.2832839 80.2147995,97.3153587 77.052384,98.9215944 C75.4756963,99.7332503 73.8277518,100.427507 72.144179,101.032113 C71.7230199,101.176194 71.2944161,101.327212 70.8769794,101.456352 C70.4574156,101.585491 70.051146,101.715697 69.5858503,101.842168 C68.7174755,102.096178 67.878348,102.302694 67.0131638,102.474523 C63.575825,103.173049 60.0507448,103.212538 56.775063,102.533757 C53.499913,101.852307 50.4991545,100.447251 48.0551556,98.5117641 C45.6010531,96.5816132 43.6850983,94.1738607 42.2796394,91.6353681 C40.8619499,89.0974091 39.9329537,86.4436517 39.3033422,83.9249035 C38.6731988,81.4018863 38.3525436,79.0037391 38.1722748,76.8644041 C38.0037048,74.7218672 37.9787118,72.8333397 38.0037048,71.275131 C38.010086,70.497094 38.0467779,69.7991019 38.0664532,69.1934283 C38.0866604,68.8684458 38.1031451,68.5722794 38.1196299,68.3017274 C40.8529098,66.2856616 43.4160245,64.054008 45.7345265,61.6339819 C52.244944,54.8408327 56.260313,47.1661215 56.7527288,40.5757528 C56.9984049,37.2752321 56.381024,34.3178375 54.9186661,31.7868158 C53.3547407,29.0796951 50.8474616,26.9115438 47.4648947,25.340528 C45.5085257,24.4306836 43.3346642,23.9690909 41.002868,23.9690909 C28.0564803,23.9690909 13.0106783,37.8248742 6.86239378,45.1516566 C6.60129642,45.4638319 6.51355494,45.8149625 6.61724941,46.1388778 C6.72253919,46.4697303 7.02351904,46.7376141 7.44148752,46.8763587 L10.845325,47.9916519 C11.328169,48.1501409 11.8471732,48.2307195 12.389575,48.2307195 C14.1156891,48.2307195 15.8487162,47.4201309 16.8069595,46.1655595 C22.9010038,38.1792066 33.044982,29.5823774 40.9183171,29.5823774 C43.706369,29.5823774 46.0360381,30.659249 47.842449,32.7825751 C49.8004133,35.0857355 49.5148547,40.7796006 47.1314771,46.9548028 C44.8959307,52.7463228 41.0704023,58.3628111 36.3584192,62.7695532 C34.6567663,64.3619143 32.8519507,65.7904501 30.9567349,67.063165 C30.8658028,67.1074566 30.7950778,67.153349 30.751473,67.2029769 C29.9054324,67.7648926 29.0413118,68.2958575 28.1585794,68.7932035 L30.8195391,49.7291613 C31.1412578,47.4211981 30.0793201,44.1628345 28.4526463,42.464814 L26.1224454,40.0319807 C25.7985996,39.6936573 25.472095,39.5148902 25.1785598,39.5148902 C24.7334713,39.5148902 24.426642,39.9284559 24.3575123,40.6200444 L21.2546547,71.9042845 C19.4126154,72.5467787 17.5110184,73.0702728 15.5487999,73.4774348 C15.2222953,73.5436053 15.172841,73.7181033 15.1893257,73.8536462 C15.3036555,74.8125848 19.3594388,77.3003823 20.4495602,77.3003823 C20.5080545,77.3003823 20.5596358,77.2929114 20.6027089,77.2806379 C20.6436549,77.2672971 20.6840692,77.2523553 20.7250152,77.2395481 L18.561789,99.0421954 C18.3315341,101.358163 19.1281204,104.441495 20.3368257,105.918058 L21.4264153,107.246804 C21.6449713,107.513621 21.8773533,107.6545 22.0980364,107.6545 C22.4957977,107.6545 22.7951823,107.211584 22.898345,106.469301 L27.3364684,74.6754411 C28.5180536,74.1338035 29.6852811,73.5526771 30.8349603,72.9325954 C30.9227018,74.3269787 31.0652152,75.9033309 31.3018513,77.6408402 C31.6448407,80.0565972 32.1665037,82.7823951 33.0731656,85.6949645 C33.9798275,88.6021976 35.2619166,91.7095431 37.1768079,94.7181665 C39.073619,97.725189 41.6489643,100.619615 44.8783824,102.86621 C48.0934428,105.126146 51.955663,106.649669 55.9572061,107.237732 C59.9635351,107.831666 64.0799397,107.520024 67.9448188,106.50292 C68.9067844,106.250511 69.8767265,105.957547 70.7881744,105.622425 C71.2183735,105.474075 71.6948363,105.289972 72.1606638,105.109604 C72.6259595,104.93137 73.0673257,104.74033 73.519859,104.553024 C75.3097851,103.774454 77.0481299,102.900896 78.6966061,101.907805 C82.0068527,99.9397663 84.9682604,97.5469555 87.504255,94.9422924 C90.0386542,92.3322929 92.1444496,89.5109747 93.8445072,86.6795176 C95.5477554,83.8464595 96.8511151,81.0075314 97.8359467,78.3190879" id="Fill-15" fill="#FEFEFE"></path>
                    <path d="M25.4765086,20.4011133 C25.9917904,19.9416553 26.0433717,19.4026858 25.6833658,18.9960574 L25.6706034,18.9821829 C25.2680561,18.5275276 24.7442661,18.5744873 24.2295161,19.0334117 L23.1782137,19.9704714 L24.4049991,21.3568502 L25.4765086,20.4011133 Z M21.2723625,19.9549961 L23.4706853,17.9949617 C24.081685,17.4511896 24.7086378,17.2009157 25.3052798,17.2350682 C25.8109898,17.2660189 26.2911749,17.5168265 26.694254,17.9714819 L26.7059528,17.9853563 C27.3951222,18.7644606 27.4100117,19.6273454 27.0000197,20.4000461 L29.6997983,21.0766928 L28.4639729,22.1786452 L26.0667695,21.5526936 L25.2350866,22.2944436 L26.6022583,23.8377105 L25.544043,24.7811738 L21.2723625,19.9549961 Z" id="Fill-17" fill="#BD9B68"></path>
                    <polygon id="Fill-19" fill="#BD9B68" points="26.9424826 15.1064592 30.9286044 12.3299662 31.6459574 13.3678825 28.8153643 15.3391232 29.5593056 16.4154611 32.0501 14.6795527 32.7685166 15.7180027 30.2771904 17.4523102 31.0477201 18.5665361 33.9160687 16.5691475 34.6339535 17.6065302 30.610608 20.4097048"></polygon>
                    <polygon id="Fill-21" fill="#BD9B68" points="32.7628267 11.1943949 33.9183553 10.5871205 38.4240131 12.7056439 36.5878233 9.18526635 37.825244 8.53530124 40.8063271 14.2526462 39.740667 14.812961 35.0861146 12.6271998 36.9813305 16.2617748 35.7439098 16.9112063"></polygon>
                    <path d="M45.9591447,8.87639951 L45.9532952,8.85985689 C45.5927575,7.81393603 44.5286927,7.20772883 43.4523973,7.58180563 C42.3755701,7.95588243 41.9235685,9.06850743 42.2841062,10.1138947 L42.2899557,10.1315046 C42.6499616,11.1774254 43.7145582,11.7825653 44.7913854,11.4084885 C45.8676808,11.035479 46.3202141,9.92232038 45.9591447,8.87639951 M40.8983227,10.6341869 L40.8924732,10.616577 C40.2942359,8.88333674 41.1673965,6.99000653 43.0429371,6.33844052 C44.917414,5.68740815 46.7466909,6.62233333 47.3449282,8.35664088 L47.3513094,8.37371714 C47.949015,10.1080247 47.0758544,12.0008213 45.2003138,12.6518537 C43.3253051,13.3034197 41.4960283,12.3679608 40.8983227,10.6341869" id="Fill-23" fill="#BD9B68"></path>
                    <path d="M48.7913863,11.8093004 C49.3401694,11.6145243 49.5555348,11.3119543 49.4167438,10.951752 L48.9131609,11.0856939 L48.6361105,10.0424412 L49.9517009,9.69131061 L50.1851464,10.5723388 C50.4132742,11.433089 49.9687174,11.9208297 49.00622,12.1913817 L48.7913863,11.8093004 Z" id="Fill-25" fill="#BD9B68"></path>
                    <polygon id="Fill-27" fill="#BD9B68" points="53.3241642 3.67555802 54.6184839 3.51493446 58.0930463 7.08920892 57.6091388 3.14619399 58.9954541 2.9754314 59.7808733 9.37956216 58.5859939 9.52791216 54.9955063 5.83730568 55.4948351 9.90945982 54.1090515 10.0796888"></polygon>
                    <polygon id="Fill-29" fill="#BD9B68" points="60.8690803 2.84591865 62.4303468 2.86086038 64.0681877 7.42128879 65.7927065 2.89287836 67.3178129 2.90835372 64.6557897 9.38185678 63.4066701 9.36958322"></polygon>
                    <path d="M37.6720952,113.787172 C37.8741665,113.414162 37.6981518,113.044888 37.17383,112.758327 L35.9470446,112.087016 L35.2966941,113.285023 L36.4415875,113.912042 C36.9903705,114.212477 37.4338638,114.223683 37.6630552,113.802647 L37.6720952,113.787172 Z M36.1687912,115.107913 L34.7330216,114.321872 L34.0555511,115.568439 L35.5317349,116.376359 C36.0810498,116.676261 36.5170983,116.66292 36.7457579,116.242951 L36.7542662,116.225875 C36.9616551,115.845394 36.8063793,115.455842 36.1687912,115.107913 L36.1687912,115.107913 Z M35.331259,110.33083 L37.9533997,111.766303 C38.5989642,112.119568 39.0105515,112.575824 39.1567873,113.076372 C39.2743077,113.476597 39.2322982,113.863481 39.0211869,114.251966 L39.0121468,114.268509 C38.6649033,114.907801 38.1320732,115.078564 37.6050926,115.084967 C38.1219697,115.693309 38.3192551,116.294713 37.9055407,117.055674 L37.8965007,117.072217 C37.3333599,118.108532 36.2129279,118.166698 34.9377517,117.46924 L32.2512673,115.999081 L35.331259,110.33083 Z" id="Fill-31" fill="#BD9B68"></path>
                    <path d="M42.6160881,117.373559 C43.256335,117.62917 43.7593861,117.432793 43.9598621,116.927442 L43.966775,116.9109 C44.1911805,116.345782 43.9141302,115.89753 43.2738833,115.641386 L41.9678647,115.120027 L41.2850765,116.842061 L42.6160881,117.373559 Z M41.1260783,113.40493 L43.8577629,114.495676 C44.6171255,114.799313 45.1212402,115.2497 45.3573445,115.799875 C45.5578205,116.266804 45.5503757,116.809509 45.3254385,117.374627 L45.3190573,117.392237 C44.9345901,118.359713 44.1725687,118.759938 43.3010034,118.739127 L43.9104078,121.463323 L42.3746661,120.849645 L41.8556619,118.418947 L40.8229714,118.006448 L40.0609499,119.924859 L38.7469549,119.399764 L41.1260783,113.40493 Z" id="Fill-33" fill="#BD9B68"></path>
                    <polygon id="Fill-35" fill="#BD9B68" points="47.2685665 115.750781 51.9528978 117.013891 51.6258614 118.233242 48.2991301 117.336205 47.9609266 118.600382 50.8883013 119.390159 50.5617966 120.609511 47.6338901 119.819734 47.2839878 121.128736 50.6548558 122.03858 50.3283511 123.257932 45.5998832 121.983616"></polygon>
                    <polygon id="Fill-37" fill="#BD9B68" points="52.5934638 117.31518 54.0999583 117.488077 54.9300459 121.981268 56.8582313 117.784243 58.0632142 117.922988 59.0012504 122.446062 60.8182966 118.256509 62.2880992 118.425137 59.3724234 124.632891 58.1493604 124.493079 57.1836724 120.132229 55.264527 124.16276 54.041464 124.022948"></polygon>
                    <polygon id="Fill-39" fill="#BD9B68" points="63.325948 118.220915 64.7404469 118.208642 64.7978777 124.6608 63.3839105 124.673607"></polygon>
                    <polygon id="Fill-41" fill="#BD9B68" points="66.3339916 118.217767 67.6315019 118.081157 71.0438477 121.714665 70.6285381 117.763112 72.0169804 117.616363 72.6923239 124.0333 71.4958493 124.160839 67.9686419 120.408331 68.398841 124.489023 67.0098669 124.635772"></polygon>
                    <path d="M73.9324566,120.582669 L73.9282025,120.565059 C73.4974716,118.781657 74.5296304,116.983847 76.423251,116.523322 C77.5490007,116.250102 78.3009186,116.388846 79.0879331,116.786937 L78.4742745,118.045777 C77.894649,117.760283 77.4096779,117.631144 76.6859437,117.807243 C75.6856909,118.050046 75.1050018,119.130653 75.3623768,120.197919 L75.3666309,120.214996 C75.6436813,121.362307 76.6332988,122.01494 77.7409685,121.744922 C78.240829,121.62272 78.6572022,121.389522 78.9448879,121.053867 L78.7284589,120.157363 L77.3442706,120.494086 L77.0565849,119.301949 L79.771253,118.640778 L80.4301118,121.366576 C79.9185524,122.069904 79.1421732,122.732677 77.9988752,123.011233 C76.052078,123.484032 74.3812676,122.439178 73.9324566,120.582669" id="Fill-43" fill="#BD9B68"></path>
                    <path d="M84.061439,117.706013 L84.0534625,117.68947 C83.3174976,116.010127 83.974761,114.076774 85.7822354,113.276325 C86.8925639,112.786449 87.7199926,112.863826 88.5043483,113.161593 L88.0991422,114.480201 C87.4626176,114.267815 86.8888416,114.218721 86.300176,114.479134 C85.3084315,114.91778 84.956402,116.061356 85.4009588,117.074191 L85.4084036,117.091268 C85.8524286,118.104103 86.9218111,118.639871 87.9305722,118.192686 C88.6037886,117.894919 88.8973237,117.442398 89.1743741,116.815913 L90.3655311,117.288178 C90.0454076,118.205493 89.5498012,118.907755 88.4150115,119.408836 C86.6825162,120.1762 84.8064439,119.402966 84.061439,117.706013" id="Fill-45" fill="#BD9B68"></path>
                    <path d="M94.9652583,112.090378 L94.9556865,112.074903 C94.3856328,111.128238 93.2189371,110.759497 92.244209,111.351297 C91.2700128,111.943629 91.059965,113.12616 91.6310822,114.072825 L91.6401223,114.088301 C92.2107077,115.034966 93.3774035,115.402639 94.3521315,114.811907 C95.3268596,114.219574 95.5363756,113.03651 94.9652583,112.090378 M90.3851533,114.872208 L90.3745179,114.856732 C89.4290371,113.286784 89.8879516,111.252574 91.5853503,110.222663 C93.2816855,109.191683 95.2651746,109.721581 96.211719,111.290996 L96.2207591,111.306471 C97.1678352,112.87642 96.7089207,114.910629 95.0109902,115.941608 C93.3141233,116.97152 91.3306341,116.441623 90.3851533,114.872208" id="Fill-47" fill="#BD9B68"></path>
                    <polygon id="Fill-49" fill="#BD9B68" points="95.4715532 107.878626 96.6494161 106.907414 99.6804852 107.935725 99.2587944 104.753137 100.436657 103.780324 104.520624 108.762322 103.435289 109.657759 100.769011 106.405798 101.115723 109.687108 101.088071 109.710055 97.9783006 108.74578 100.626498 111.976928 99.5560519 112.860624"></polygon>
                    <path d="M105.551241,103.106185 C106.03568,102.588027 106.009624,101.995161 105.607076,101.616815 L105.593782,101.604541 C105.131145,101.168563 104.58183,101.259281 104.097923,101.776371 L103.349196,102.576821 L104.784965,103.927446 L105.551241,103.106185 Z M101.449194,102.737445 L103.247096,100.812096 C104.296804,99.6887987 105.595377,99.6333008 106.554152,100.536208 L106.567447,100.548482 C107.653846,101.569855 107.425186,102.947696 106.438759,104.004823 L105.703326,104.791398 L107.111444,106.116409 L106.143097,107.152191 L101.449194,102.737445 Z" id="Fill-51" fill="#BD9B68"></path>
                    <path d="M110.368833,98.018954 L108.186463,97.4522356 L109.345714,99.3925256 L110.368833,98.018954 Z M106.444928,96.9394142 L107.226624,95.8908252 L114.066737,97.5685676 L113.180282,98.7580358 L111.673256,98.3631473 L110.043923,100.549442 L110.846891,101.888861 L109.982239,103.04898 L106.444928,96.9394142 Z" id="Fill-53" fill="#BD9B68"></path>
                    <polygon id="Fill-55" fill="#BD9B68" points="109.369165 92.9397808 110.006221 91.7972724 114.93357 91.1008812 111.479214 89.1589904 112.161471 87.9364369 117.772139 91.0896749 117.184006 92.1436003 112.095532 92.8656058 115.662622 94.8704654 114.980365 96.0930188"></polygon>
                    <polygon id="Fill-57" fill="#BD9B68" points="117.06941 86.391836 112.532378 87.2184336 113.154545 85.6821039 116.122334 85.2301167 114.318582 82.8042207 114.923732 81.310048 117.575652 85.066825 119.949989 86.0343018 119.418223 87.3486401"></polygon>
                    <path d="M59.9255138,35.4449773 L64.9842087,36.2128754 C65.9344754,36.3569563 66.2184388,37.0826973 65.6164791,37.8367209 L62.5402097,41.6868836 C61.9387818,42.4393063 62.0594928,42.5615083 62.8098154,41.9585029 L66.6103507,38.9045207 C67.3601415,38.300448 68.0392073,38.5912781 68.1258853,39.5523513 L69.1330511,49.1161236 C69.2202608,50.0195644 69.3606471,50.0195644 69.4478569,49.1161236 L70.4544909,39.5528849 C70.5417006,38.5912781 71.2207664,38.3025826 71.9705572,38.9045207 L75.7710926,41.9585029 C76.5214151,42.5615083 76.6421261,42.4393063 76.0417617,41.6868836 L72.9644289,37.8367209 C72.3619374,37.0826973 72.6453689,36.3569563 73.5961675,36.2128754 L78.6553942,35.4449773 C79.6061927,35.3008964 79.6061927,35.0660978 78.6553942,34.9225505 L73.5961675,34.1557198 C72.6453689,34.0105716 72.3619374,33.2837633 72.9644289,32.5313406 L76.0417617,28.6801106 C76.6421261,27.9266207 76.5219469,27.8070869 75.7732196,28.409025 L71.891324,31.5366486 C71.1425968,32.1391203 70.435879,31.853093 70.315168,30.8962888 L69.5106053,24.5663331 C69.3893625,23.6100626 69.1915454,23.6100626 69.0703026,24.5663331 L68.2662716,30.8973561 C68.1444971,31.8541603 67.4383112,32.1401876 66.6885204,31.5366486 L62.8082201,28.4100923 C62.058961,27.8081541 61.9387818,27.9276879 62.5402097,28.6801106 L65.6164791,32.5313406 C66.2184388,33.2837633 65.9344754,34.0105716 64.9842087,34.1557198 L59.9255138,34.9225505 C58.9747152,35.0660978 58.9747152,35.3008964 59.9255138,35.4449773" id="Fill-59" fill="#BD9B68"></path>
                    <path d="M84.3569416,29.3066492 L86.2181245,31.6359577 C86.5807892,32.0906131 86.4100922,32.5303267 85.8336573,32.6173089 L82.7749362,33.0810361 C82.2000966,33.1680183 82.2000966,33.311032 82.7749362,33.3969469 L85.8336573,33.8617413 C86.4100922,33.9487235 86.5807892,34.3879035 86.2181245,34.8436262 L84.3569416,37.172401 C83.9932133,37.6281237 84.0655336,37.7006978 84.520194,37.33676 L86.8179571,35.4903895 C87.2726175,35.1237836 87.6826095,35.2998825 87.7347226,35.8810089 L88.344127,42.6197276 C88.3967719,43.2008541 88.4823863,43.2008541 88.5339677,42.6197276 L89.1428403,35.8810089 C89.196017,35.2998825 89.606009,35.1248508 90.0601376,35.4903895 L92.3584325,37.33676 C92.8120293,37.7006978 92.8848813,37.6281237 92.5216848,37.172401 L90.660502,34.8436262 C90.2967737,34.3879035 90.4680025,33.9487235 91.0423103,33.8617413 L94.1026267,33.3969469 C94.6785298,33.311032 94.6785298,33.1680183 94.1026267,33.0810361 L91.0423103,32.6173089 C90.4680025,32.5303267 90.2967737,32.0906131 90.660502,31.6359577 L92.5216848,29.305582 C92.8848813,28.8503929 92.8125611,28.7783525 92.359496,29.1422902 L90.0128104,31.0334859 C89.5592135,31.3979573 89.1316732,31.2255938 89.0582894,30.6466019 L88.5717231,26.8188517 C88.4983393,26.2393262 88.3792236,26.2393262 88.3069034,26.8188517 L87.8198052,30.6466019 C87.7458897,31.2255938 87.3183494,31.3979573 86.8658161,31.0334859 L84.5185987,29.1433575 C84.0650018,28.7783525 83.9921498,28.8503929 84.3569416,29.3066492" id="Fill-61" fill="#BD9B68"></path>
                    <path d="M76.8166519,23.1375305 L78.8761836,23.4507731 C79.2627779,23.5084055 79.3776395,23.8045719 79.1335586,24.1108772 L77.8812485,25.6792249 C77.6361041,25.9865976 77.6860902,26.0340909 77.9902606,25.7886197 L79.5377012,24.5473891 C79.8429352,24.3019179 80.1194538,24.4182499 80.1545503,24.809403 L80.5656059,29.3452843 C80.6001707,29.7364373 80.6576015,29.7364373 80.6937616,29.3452843 L81.1032218,24.8104702 C81.1383184,24.4182499 81.4143052,24.3019179 81.720071,24.5473891 L83.2675116,25.7886197 C83.5727455,26.0340909 83.6211363,25.9865976 83.3765237,25.6792249 L82.1236818,24.1108772 C81.8796009,23.8045719 81.9949943,23.5084055 82.3815885,23.4507731 L84.4411203,23.1375305 C84.8271828,23.0798981 84.8271828,22.9849114 84.4411203,22.9262118 L82.3815885,22.6140364 C81.9949943,22.5548031 81.8796009,22.2581031 82.1236818,21.9517978 L83.3765237,20.3845174 C83.6211363,20.078212 83.5727455,20.0291177 83.2675116,20.2740553 L81.6876332,21.5473039 C81.3823992,21.7922415 81.0957771,21.6759094 81.045791,21.2868909 L80.7187546,18.7099767 C80.6687686,18.3204246 80.5890036,18.3204246 80.5395493,18.7099767 L80.2119811,21.2868909 C80.1619951,21.6769767 79.8753729,21.7922415 79.5701389,21.5473039 L77.9902606,20.2751226 C77.6850266,20.0291177 77.6361041,20.078212 77.8812485,20.3855846 L79.1335586,21.9517978 C79.3776395,22.2581031 79.2627779,22.5548031 78.8761836,22.6140364 L76.8166519,22.9262118 C76.4295259,22.9849114 76.4295259,23.0798981 76.8166519,23.1375305" id="Fill-63" fill="#BD9B68"></path>
                    <path d="M21.5282486,43.0737427 C20.9901008,43.6570037 20.4934309,44.8710189 20.4040941,45.7728589 L18.0403919,69.6267918 C17.9510552,70.5275644 18.2823457,71.149247 18.7774203,71.0040988 C19.2708997,70.858417 19.7420448,70.0014022 19.8308498,69.0990287 L22.3546137,43.6628736 C22.4439505,42.7610337 22.066928,42.4899481 21.5282486,43.0737427" id="Fill-65" fill="#BD9B68"></path>
                    <path d="M14.9640163,49.4273384 C14.1318017,49.740581 13.2331162,49.91081 12.3243273,49.91081 C11.6106966,49.91081 10.9199319,49.8030161 10.2722402,49.5916974 L6.86627568,48.4742697 C5.9399384,48.1695652 5.25768195,47.5147974 4.99179869,46.6753925 C4.90352545,46.3984369 4.86417472,46.1156114 4.87161945,45.8343868 C4.88863598,45.2345832 4.99126692,44.4309317 3.63792113,46.0462391 C3.01043663,46.7949263 2.80889712,47.721847 3.08541571,48.5890008 C3.3507672,49.4284056 4.03196012,50.0831735 4.9567021,50.3878779 L8.357349,51.504772 C9.00450886,51.7166244 9.69367827,51.8244182 10.4067772,51.8244182 C12.1281054,51.8244182 13.8148688,51.2150092 15.0820684,50.1786938 C15.791445,49.5975673 15.8993936,49.0772751 14.9640163,49.4273384" id="Fill-67" fill="#BD9B68"></path>
                    <path d="M45.5517052,46.4006248 C49.8760305,35.1948635 45.7335693,31.2571849 40.8599291,31.2571849 C36.6111146,31.2571849 35.2907384,33.1707932 38.9030283,33.1707932 C41.2204668,33.1707932 43.0768638,34.0299425 44.5769771,35.796268 C45.8877816,37.3395349 45.9691419,42.1368964 43.5884232,48.3153004 C41.7182003,53.1676261 43.4028366,51.9680189 45.5517052,46.4006248" id="Fill-69" fill="#BD9B68"></path>
                    <path d="M79.4827697,103.373002 C77.8677948,104.345281 76.0613839,105.269 74.1209679,106.113207 L73.7960585,106.249818 C73.4339255,106.401903 73.0723243,106.552921 72.6963654,106.697002 L72.5820356,106.741294 C72.1348199,106.913657 71.6828184,107.086554 71.2706993,107.230635 C70.3996657,107.550281 69.3909047,107.86299 68.3050374,108.145282 C65.5664398,108.868889 62.778388,109.234427 60.0238374,109.234427 C58.5519077,109.234427 57.0847638,109.128234 55.6649472,108.916916 C51.3975209,108.29043 47.3231258,106.68206 43.8836599,104.264169 C40.7254986,102.068269 37.9055407,99.0863269 35.7364651,95.6486625 C33.9593013,92.8534924 32.5565013,89.7728285 31.4530857,86.2353747 C30.6495865,83.6547251 30.0508174,80.9347972 29.6232771,77.9197702 C29.3914269,76.2254852 27.7440142,79.7373246 27.9631021,81.6194485 C28.3603316,83.937017 28.8687004,86.0886256 29.5089473,88.1500503 C30.6112993,91.6864368 32.0114406,94.7671006 33.7864772,97.5622708 C35.952894,101.001002 38.7685978,103.981877 41.9219732,106.177777 C45.3566532,108.595669 49.4262624,110.205106 53.686244,110.830524 C55.1044653,111.041843 56.5694821,111.148036 58.0398165,111.148036 L58.0403483,111.148036 C60.7906447,111.148036 63.5733789,110.782497 66.3098494,110.059958 C67.3935896,109.776599 68.4002236,109.464957 69.2712572,109.14371 C69.6823127,109.000162 70.1343143,108.827265 70.5799346,108.654902 L70.6953279,108.610077 C71.0702233,108.466529 71.4302293,108.315511 71.7918305,108.163426 L72.1167398,108.026816 C74.054497,107.182608 75.8582491,106.258889 77.4721605,105.28661 C80.634576,103.404486 81.8677425,101.955672 79.4827697,103.373002" id="Fill-71" fill="#BD9B68"></path>
                    <path d="M20.0993919,108.344541 L19.0108658,107.015794 C17.5144749,105.189702 16.5950505,101.715751 16.8710374,98.9339213 L18.7242437,80.2620993 C18.8125169,79.3602594 18.3254188,78.4061234 17.6718777,78.0528583 C17.2305115,77.8143243 16.8274325,77.5693867 16.5136903,77.369808 C13.6767159,75.5629263 13.5538778,74.5340817 13.5012329,74.0954353 C13.4948517,74.042072 13.4916611,73.9881751 13.4900658,73.9342781 C13.4879388,73.8451614 13.4336986,73.7864617 13.3619101,73.8024707 C13.3183052,73.8120761 13.2752321,73.8227488 13.2316273,73.8302197 C12.1329977,74.0591483 11.4549953,74.9556519 11.5826193,76.0090436 C11.6352642,76.4487572 11.7575705,77.4754673 14.589759,79.2834162 C14.904033,79.4840623 15.3060485,79.7284662 15.7468829,79.9664666 C16.3998922,80.3197317 16.8875221,81.2738677 16.7976536,82.1757076 L14.9476379,100.84753 C14.671651,103.629359 15.5910753,107.10331 17.0832122,108.929403 L18.17227,110.259216 C18.7024413,110.908648 19.3889518,111.265115 20.1041778,111.265115 C20.5763865,111.265115 21.1124071,111.095953 21.5644087,110.687724 C22.2243309,110.091122 22.3040959,109.33443 22.2083779,109.342968 C22.1498836,109.349372 22.0924528,109.351507 22.035022,109.351507 C21.3182008,109.351507 20.6316902,108.99504 20.0993919,108.344541" id="Fill-73" fill="#BD9B68"></path>
                    <path d="M99.58498,90.8375333 C98.9718532,90.8711521 98.3491546,90.8471387 97.7041218,90.8471387 C96.7995869,90.8407351 95.8530425,90.8594122 94.8900134,91.0077622 C93.9269842,91.1571795 92.9432161,91.4325342 91.9934811,91.933082 C91.2638974,92.3221005 90.5300596,92.8530654 89.9413941,93.5670665 C89.6611531,93.9064572 89.7744194,94.4096732 90.1657996,94.5681622 C90.7278768,94.7954899 91.3303683,94.905952 92.00518,94.9224946 C92.9533197,94.9465081 94.0354646,94.7762791 95.1420707,94.4416912 C96.2449544,94.1065696 97.3712359,93.6017527 98.3236298,92.9587248 C98.981425,92.5174102 99.5525422,91.9891135 99.9391365,91.4597494 C100.200766,91.1027489 100.001353,90.8140534 99.58498,90.8375333" id="Fill-75" fill="#BD9B68"></path>
                    <path d="M102.723626,84.8920068 C101.387296,85.5035503 99.9977903,85.5371692 98.4508815,85.8594836 C97.5468784,86.0473224 96.5758728,86.3200089 95.6107165,86.8589784 C95.3698263,86.991853 95.1326584,87.1418039 94.8981494,87.320571 C94.7800972,87.4080868 94.6678945,87.4929345 94.55516,87.5900557 C94.4418937,87.6909124 94.331818,87.797639 94.2259965,87.903832 C93.9845745,88.1407651 93.7644232,88.4235906 93.5836225,88.7288287 C93.3576218,89.1141118 93.5745825,89.5671663 93.983511,89.6578839 C94.5498423,89.784355 95.0959665,89.8521264 95.7314275,89.8441219 C96.6247953,89.8313147 97.695773,89.6690902 98.8380075,89.2784708 C99.9696067,88.8921204 101.167677,88.2405544 102.044028,87.3339118 C102.153572,87.220248 102.25833,87.1124541 102.358302,86.9971893 C102.452425,86.8717856 102.541761,86.7490499 102.627376,86.6273816 C102.712458,86.5051796 102.793819,86.3893812 102.867202,86.2693138 C102.933142,86.1391073 102.994826,86.011569 103.050662,85.8899007 C103.162865,85.6705775 103.237312,85.444317 103.289425,85.2271284 C103.381952,84.846648 103.111283,84.7153742 102.723626,84.8920068" id="Fill-77" fill="#BD9B68"></path>
                    <path d="M105.366399,78.5525524 C104.811766,78.9122211 104.233736,79.2158583 103.645602,79.475204 C102.828809,79.8407426 101.987554,80.1411781 101.119711,80.4987122 C100.253995,80.8562464 99.3563735,81.2698121 98.4630058,81.8573421 C97.7717093,82.3168002 97.0591422,82.8861867 96.4609048,83.6209995 C96.1833227,83.9625247 96.2880807,84.4577362 96.6847785,84.603418 C97.2761029,84.8184721 97.929644,84.8974498 98.6640135,84.8456874 C99.6876641,84.7715124 100.869249,84.4363908 102.017333,83.8019011 C103.162227,83.1759495 104.254475,82.2330198 104.973423,81.1529464 C105.48711,80.4053265 105.786494,79.6112804 105.920499,78.923961 C106.006646,78.4783774 105.726936,78.3182874 105.366399,78.5525524" id="Fill-79" fill="#BD9B68"></path>
                    <path d="M106.307891,71.6121737 C106.208451,71.2242224 105.917575,71.2674467 105.670303,71.6356536 C105.310297,72.1650176 104.875312,72.5924577 104.406294,72.9595973 C103.743713,73.483625 102.996049,73.9462849 102.220734,74.5210077 C101.450204,75.0930624 100.643514,75.77131 99.9320108,76.6790199 C99.5799814,77.1288726 99.2492226,77.6454295 98.9987606,78.2228205 C98.8674142,78.4949733 98.7716963,78.8268931 98.6919313,79.1267949 C98.651517,79.279414 98.6275875,79.4405712 98.6089757,79.6001275 C98.5807921,79.8642759 98.9147414,80.0489129 99.3273923,79.9710025 C99.9112719,79.8605404 100.462714,79.6881769 101.073182,79.3994814 C101.925072,78.9944539 102.882783,78.3669014 103.813375,77.4960122 C104.736521,76.6405983 105.63627,75.4815473 106.091994,74.1938906 C106.204197,73.8710426 106.302042,73.5647372 106.341924,73.239221 C106.367449,73.080732 106.386593,72.9270456 106.404673,72.7802965 C106.420094,72.6319465 106.405736,72.4750584 106.401482,72.3347129 C106.404141,72.0748336 106.363727,71.8325642 106.307891,71.6121737" id="Fill-81" fill="#BD9B68"></path>
                    <path d="M100.503128,72.0749403 C100.448888,72.3540304 100.433998,72.6720758 100.429212,72.9613049 C100.428149,73.1096549 100.439848,73.2596058 100.457396,73.4084894 C100.486643,73.6539606 100.858348,73.7665572 101.250792,73.61127 C101.773518,73.404754 102.244663,73.1336684 102.732825,72.7478517 C103.079005,72.4692952 103.442733,72.1133619 103.793699,71.68859 C104.145729,71.247809 104.495631,70.7467276 104.783849,70.1362513 C105.08217,69.5487213 105.29009,68.8485946 105.411865,68.1655443 C105.448025,67.8106783 105.487907,67.4675522 105.479931,67.1297624 C105.45866,66.7919727 105.451216,66.464322 105.386872,66.1601511 C105.244358,65.3234144 104.92264,64.657974 104.574333,64.1574261 C104.322275,63.7934883 103.99258,63.9050177 103.889949,64.3473995 C103.747967,64.9509385 103.585779,65.532065 103.359246,66.0544918 C103.04125,66.8117171 102.668481,67.4163234 102.262743,68.0796294 C101.863919,68.7429353 101.37682,69.4969588 100.974805,70.4719065 C100.77752,70.9532436 100.597782,71.4938139 100.503128,72.0749403" id="Fill-83" fill="#BD9B68"></path>
                    <path d="M96.5626318,72.3954404 C96.746623,72.8052706 97.0954618,73.0075175 97.2720083,72.8026024 C97.3757028,72.6814677 97.4692937,72.5475258 97.5538446,72.3975749 C97.7117792,72.0875341 97.8441891,71.7134573 97.8941751,71.2918871 C98.0239262,70.4567513 97.8484432,69.4097632 97.4650396,68.5378067 C97.0880171,67.6557112 96.6120861,67.033495 96.2877085,66.429956 C96.0936137,66.0916326 95.9340837,65.7351657 95.7889115,65.3936405 C95.6155556,64.9795413 95.2943686,64.9603305 95.1513234,65.3888378 C95.0077465,65.8189461 94.9141556,66.3008168 94.9141556,66.8200418 C94.904052,67.6717202 95.1311163,68.4929815 95.3337193,69.1573547 C95.5448306,69.8307997 95.7554102,70.3969844 95.9989593,71.0330751 C96.1648704,71.4605152 96.3430122,71.9141033 96.5626318,72.3954404" id="Fill-85" fill="#BD9B68"></path>
                    <path d="M93.5402836,69.6115832 C93.313751,69.2289683 92.9829923,69.2604527 92.8798295,69.7012336 C92.7548644,70.2279295 92.6963701,70.8090559 92.7272126,71.4040568 C92.7676268,72.3123003 92.9952229,73.207203 93.2339861,73.9580248 C93.4817893,74.7205865 93.7061947,75.3129192 93.9433626,75.9687543 C94.1129961,76.428746 94.2799708,76.9511728 94.4628985,77.5504428 C94.5931813,77.9832192 94.9297895,78.2532376 95.1749339,78.0691341 C95.315852,77.9608066 95.4514524,77.8295329 95.573227,77.6779811 C95.8125219,77.3540658 96.0225697,76.9367647 96.1283912,76.4362169 C96.2448481,75.9378036 96.2544199,75.3700179 96.1805043,74.7984969 C96.0927629,74.2408503 95.92632,73.6773338 95.7077639,73.1997322 C95.2706518,72.2178473 94.7346312,71.4979762 94.293265,70.817594 C94.0151511,70.4050956 93.7689432,69.9957991 93.5402836,69.6115832" id="Fill-87" fill="#BD9B68"></path>
                    <path d="M91.6011969,73.4121181 C91.4475164,72.9889471 91.1311153,72.9681354 90.9625454,73.3859701 C90.7503705,73.9110651 90.5833958,74.5012633 90.5105438,75.1373539 C90.4015317,76.0861536 90.4993767,77.1043255 90.7317587,78.012569 C90.9641407,78.9309516 91.3012806,79.7068541 91.6304441,80.3984426 C91.8638896,80.8936541 92.1164787,81.3749912 92.3334394,81.9715929 C92.4881835,82.3952976 92.687596,82.7112084 92.8168152,82.6306298 C92.8912625,82.5836701 92.9667734,82.5281723 93.0390936,82.4668045 C93.1130092,82.4033021 93.1874565,82.3328626 93.2565861,82.2544185 C93.3188028,82.1733063 93.3783607,82.0863241 93.4352597,81.9902701 C93.550653,81.8002967 93.6580699,81.5809735 93.7186912,81.3419059 C93.7532561,81.2223721 93.7851621,81.095901 93.8144092,80.9651609 C93.8362116,80.8360217 93.846847,80.7058153 93.8590776,80.5708061 C93.9101272,80.0227649 93.8372752,79.469921 93.7240089,78.9293507 C93.6043614,78.4069239 93.4320691,77.896237 93.2518002,77.4373126 C92.8822225,76.5077237 92.4743576,75.6896642 92.14998,74.8790755 C91.9372734,74.373725 91.7644493,73.8721099 91.6011969,73.4121181" id="Fill-89" fill="#BD9B68"></path>
                    <path d="M89.2176067,78.1147598 C88.9623588,77.7529565 88.6427671,77.8330015 88.5757645,78.2833878 C88.4975948,78.8148864 88.4614347,79.3730666 88.4566488,79.9269778 C88.4492041,80.775988 88.5114208,81.6164601 88.6071387,82.4030353 C88.7055155,83.1949468 88.8395207,83.9212215 88.9974554,84.6587024 C89.107531,85.1821965 89.235155,85.723834 89.3542707,86.3455166 C89.4398851,86.7921675 89.8419006,87.091002 90.1832947,86.8257864 C90.5783972,86.5205483 90.9176643,86.0333412 91.1181402,85.4089905 C91.4425178,84.4473837 91.4180566,83.255781 91.1702534,82.2023893 C90.925109,81.1399258 90.4890604,80.1953952 90.0434401,79.4109546 C89.765858,78.9253484 89.4850853,78.492572 89.2176067,78.1147598" id="Fill-91" fill="#BD9B68"></path>
                    <path d="M86.6667759,82.4526098 C86.390789,82.1100174 86.0366325,82.2124749 85.9579311,82.6607267 C85.753201,83.8517958 85.7808528,85.1890803 85.930811,86.2878309 C86.0632209,87.4714291 86.3487795,88.2532015 86.6013686,89.5872843 C86.6843242,90.0355361 87.0916573,90.3904021 87.459108,90.1764152 C87.8536787,89.9448185 88.2051764,89.5397909 88.4322407,88.9810771 C88.8044773,88.1005825 88.7986279,86.9431323 88.5486976,85.9841936 C88.2998309,85.0183177 87.8717588,84.20933 87.4389009,83.5294814 C87.1820576,83.1303238 86.9225556,82.7685206 86.6667759,82.4526098" id="Fill-93" fill="#BD9B68"></path>
                    <path d="M100.290209,59.3531807 C100.019008,59.0047183 99.6419853,59.131723 99.4994719,59.5623649 C99.3309019,60.0661146 99.1506331,60.5762678 98.9921667,61.0970937 C98.7480858,61.8858034 98.5412286,62.6958584 98.4263671,63.5149852 C98.3093784,64.3346457 98.287576,65.1612433 98.3955246,66.0043836 C98.4487013,66.4275547 98.5337839,66.8549948 98.6481137,67.2957757 C98.7129892,67.5220361 98.7624435,67.7365566 98.8384861,67.9734897 C98.8757098,68.0935572 98.9097428,68.2136246 98.9464347,68.3368939 C99.0043973,68.5364726 99.4000316,68.6517374 99.7754587,68.451625 C100.326369,68.1581268 100.787942,67.6511753 101.108066,67.0417663 C101.566448,66.1810162 101.771178,65.118019 101.763202,64.0496856 C101.75363,62.9808185 101.536138,61.8986106 101.171878,60.9631518 C100.933646,60.3462719 100.628412,59.7907599 100.290209,59.3531807" id="Fill-95" fill="#BD9B68"></path>
                    <path d="M12.5248032,90.9277172 C12.3152872,90.3204428 12.0845005,89.6907557 11.8340385,89.0407906 C11.5888942,88.3897583 11.2927002,87.7259187 11.0682947,87.0220566 C10.8258092,86.3224637 10.5679024,85.6073953 10.2972333,84.8779189 C10.0217782,84.1511106 9.8170481,83.3682708 9.55541897,82.5945029 C9.42992207,82.2049507 9.30176634,81.8127304 9.17307885,81.4151737 C9.04120075,81.019218 8.95133221,80.6056523 8.83647064,80.197423 C8.6211052,79.3745608 8.37915143,78.5447613 8.16697659,77.6957511 C7.98298537,76.8387363 7.79739885,75.9710489 7.60968527,75.0948234 L7.46717184,74.4373874 L7.36454091,73.7671442 C7.29594303,73.3204933 7.22574984,72.8717079 7.15555666,72.4223888 C7.09068115,71.9986842 7.02421033,71.5776476 6.95880305,71.158212 C6.89711813,70.7377092 6.87318864,70.3150717 6.82692495,69.8956361 C6.74450114,69.0562313 6.6626091,68.2248309 6.58124882,67.4046369 C6.54402516,66.5807074 6.50892857,65.7658496 6.47223668,64.9637991 C6.45256132,64.5662424 6.43288596,64.1713539 6.4132106,63.7807345 C6.4116153,63.381577 6.40895647,62.9861548 6.4068294,62.5944681 C6.37970931,59.47645 6.5291357,56.6273829 6.64293374,54.1177065 C5.26565845,58.919337 4.73282839,65.6959437 5.85379222,72.6182322 C5.9255807,73.0792912 5.99683741,73.537682 6.06809413,73.9944719 L6.17551096,74.6785896 L6.32174676,75.3525681 C6.52169097,76.2474708 6.71950812,77.1322345 6.91466643,78.0068592 C7.1438578,78.8729457 7.40761399,79.7166196 7.65275836,80.5501545 C7.78250939,80.9642538 7.88833093,81.3815548 8.03882086,81.7823133 C8.18877901,82.1809372 8.33661011,82.5758257 8.48337767,82.9669788 C8.79127048,83.7444822 9.04917725,84.5171829 9.39163489,85.2402557 C9.73037016,85.9643958 10.0653831,86.6655897 10.3972054,87.3385011 C10.7125429,88.0215514 11.099669,88.6293595 11.4554208,89.2275622 C11.8164902,89.8230967 12.1733056,90.3898151 12.5248032,90.9277172" id="Fill-97" fill="#FEFEFE"></path>
                    <path d="M20.8577973,24.5028841 C19.3486439,26.2740124 18.02295,28.0510106 16.8716755,29.7746454 C18.1909882,28.1822843 19.6352661,26.5408289 21.2263115,24.9004408 L20.8577973,24.5028841 Z" id="Fill-99" fill="#FEFEFE"></path>
                    <path d="M80.3551859,7.87375629 C76.9673013,6.80649011 73.3454396,6.04926475 69.5964856,5.63303094 L69.094498,6.85931978 C72.8987557,7.22539209 76.57858,7.92605234 80.0387848,8.92447986 C87.2617694,11.0269942 93.491946,14.3109723 98.4432241,17.7433004 C93.8445072,13.8472451 87.6648485,10.193993 80.3551859,7.87375629" id="Fill-101" fill="#FEFEFE"></path>
                    <path d="M120.129141,56.7564154 C120.431717,59.2804999 120.569976,61.8115217 120.576889,64.248624 C120.580611,66.7529641 120.412041,69.096147 120.181255,71.4099801 C119.849432,74.2867961 119.352762,76.9976522 118.786431,79.5041269 C118.669442,80.0206837 118.639663,80.5393751 118.726873,80.6647789 C118.814083,80.7901826 119.033171,80.4886799 119.204399,79.9870648 C120.074369,77.4411013 120.792254,74.601106 121.264995,71.5529938 C121.593095,69.2359589 121.823881,66.7433587 121.85047,64.2774402 C121.878653,61.7474857 121.745712,59.1865805 121.435692,56.5931237 C120.764071,51.083362 119.27087,45.8297442 117.29004,41.2725175 C116.289255,38.997106 115.16191,36.8993943 113.989365,35.0039296 C112.818947,33.1041958 111.548557,31.4419287 110.336661,29.9829758 C111.294372,31.633503 112.349397,33.4083666 113.344864,35.3726701 C114.344585,37.3343053 115.33952,39.4485596 116.244055,41.7122312 C118.0276,46.2443771 119.471346,51.3667211 120.129141,56.7564154" id="Fill-103" fill="#FEFEFE"></path>
                    <path d="M5.77104935,38.5889301 C6.20762966,37.7601979 6.65431354,36.9143894 7.11003745,36.0488365 C7.33656999,35.6155265 7.56469782,35.1774137 7.7954845,34.7344982 C8.0321206,34.2953182 8.31289332,33.8780171 8.57133185,33.4420389 C9.09724894,32.5770196 9.63220606,31.696525 10.1772667,30.7994878 C10.7786947,29.9392713 11.3912897,29.0646466 12.0134565,28.1756139 C14.5739123,24.6845862 17.5252165,21.1161817 21.1178312,17.921854 C24.6721586,14.6992437 28.7157112,11.7124993 33.1905265,9.19428475 C34.3279751,8.60088475 35.4734002,8.00428295 36.6257382,7.40341209 C37.8094505,6.87084626 39.0139017,6.36442845 40.215694,5.83826622 C40.8107407,5.55864248 41.4382252,5.35799644 42.0603921,5.13867324 C42.6820271,4.92095094 43.3057893,4.70376227 43.9311467,4.48550633 C45.1675038,4.00523655 46.4687365,3.71654104 47.7518891,3.35847324 C48.3565077,3.19624878 48.9611262,3.03295705 49.5636177,2.87126622 C50.1762127,2.75386694 50.788276,2.63753493 51.3987439,2.52013565 C52.0097437,2.40327 52.6196799,2.28693799 53.2280208,2.17060597 L54.1400004,1.99717522 L55.0599564,1.8920495 C56.2856783,1.75063673 57.5055507,1.60922396 58.7185101,1.46941209 C59.9389143,1.41871694 61.1529372,1.36855543 62.3600472,1.31786029 L63.2635186,1.28050597 L63.4889876,1.27090058 C63.5150441,1.26716514 63.6267151,1.27410237 63.6915906,1.27516964 L64.146251,1.29171227 C64.7519331,1.31199032 65.3565516,1.33280201 65.9574478,1.35361371 C67.1565813,1.40857791 68.3684772,1.38723259 69.5192199,1.55746155 C70.6816615,1.68446622 71.8355949,1.81040363 72.9778294,1.93580741 C74.1184686,2.11670903 75.2431548,2.34883942 76.3603962,2.54788457 C76.9171558,2.65674572 77.4771059,2.73945885 78.0242937,2.86859806 C78.5682908,3.01161173 79.1096291,3.15409176 79.6477768,3.29550453 C80.1859246,3.43638367 80.7219452,3.57672917 81.255307,3.71600741 C81.7849465,3.86489104 82.325753,3.9689495 82.8351854,4.16479284 C84.8915265,4.88039482 86.935637,5.49620741 88.8212811,6.36496209 C92.6835014,7.89648906 96.0777671,9.88480597 99.2077448,11.7455846 C96.2426147,9.64520471 92.9344951,7.4407664 89.1020538,5.72727054 C87.231831,4.76779824 85.188784,4.06873888 83.120744,3.28002917 C82.6091846,3.06657594 82.0646557,2.94437396 81.5307621,2.77948133 C80.9936779,2.62366047 80.4528714,2.46677234 79.909406,2.30935058 C79.3654088,2.15246245 78.8192846,1.99504068 78.269438,1.83601802 C77.7153373,1.69247072 77.1479424,1.5969504 76.5826746,1.47314752 C75.4510755,1.24742072 74.3114998,0.992344101 73.1511853,0.788496259 C71.9754495,0.643348058 70.7917372,0.496598957 69.5973896,0.349849856 C68.3977243,0.161477374 67.2113532,0.171616403 66.0058385,0.104912266 C65.4044106,0.0787642446 64.8008556,0.052616223 64.1957053,0.0264682014 L63.7405131,0.00779104317 C63.6538352,0.0051228777 63.6134209,-0.00128071942 63.4884558,0.000320179856 L63.2582009,0.00779104317 L62.3366495,0.0398090288 C61.10561,0.0835669424 59.8655305,0.128925755 58.6206651,0.173750935 C57.3805855,0.311961906 56.1357201,0.451240144 54.8839417,0.591052014 L53.9437785,0.696711367 L53.0121236,0.871743022 C52.391552,0.989142302 51.7683217,1.10707522 51.1450913,1.22554176 C50.5202656,1.34454194 49.8959717,1.46407576 49.2700826,1.5825423 C48.6537652,1.74903583 48.0363842,1.91392845 47.4195351,2.07988835 C46.1081988,2.44542701 44.7803778,2.74266065 43.5169006,3.23146856 C42.8793125,3.45452719 42.2422562,3.67758583 41.6067952,3.90064446 C40.9723978,4.12423673 40.3316191,4.33075273 39.7243417,4.61678007 C38.4970246,5.15521586 37.2697075,5.6749745 36.0615339,6.22301568 C34.888457,6.83989554 33.7206977,7.45410723 32.5614467,8.06404986 C28.0058029,10.6548385 23.9064148,13.7424396 20.3467697,17.0872518 C13.2040818,23.7928853 8.5022022,31.6554353 5.77104935,38.5889301" id="Fill-105" fill="#FEFEFE"></path>
                    <path d="M11.4841361,99.4488772 C11.1140266,98.7108626 10.7162653,97.9461664 10.2919156,97.1569231 C10.0786772,96.7631019 9.86012119,96.3618098 9.63837455,95.9541141 C9.52564005,95.7497326 9.41343731,95.5458848 9.30017104,95.340436 C9.20019894,95.1264492 9.10022683,94.9119287 8.99919119,94.6952736 C8.19622375,92.9641679 7.24648874,91.1930396 6.49244381,89.2116599 C6.2877137,88.7255202 6.08192006,88.2335105 5.87346758,87.7366981 C5.76924134,87.4890923 5.66288804,87.2404193 5.5570665,86.9901454 C5.46932502,86.7329342 5.38105178,86.4741222 5.29277854,86.2153101 C4.93543144,85.1795283 4.57117137,84.1250693 4.20318894,83.0567358 C3.99739529,82.5295063 3.88572432,81.9691916 3.72778967,81.4184822 C3.57942681,80.8667056 3.42893688,80.3111936 3.27897872,79.753547 C3.12795703,79.1953668 2.97587181,78.635052 2.82378658,78.0720691 C2.71371091,77.4994808 2.60363524,76.924758 2.49249604,76.3479006 C1.5209586,72.0356116 1.29495783,67.7003763 1.09341832,63.7274779 C1.09767245,62.719445 1.07374296,61.723152 1.08703712,60.7631461 C1.12319725,59.8074092 1.12426078,58.872484 1.1683974,57.9599715 C1.21838345,57.0463916 1.26836951,56.1578925 1.31622849,55.297676 C1.38908051,54.4395939 1.45129719,53.606059 1.50075148,52.8024076 C1.308252,53.5815119 1.11787958,54.3969033 0.930165999,55.2448463 C0.757873646,56.0943902 0.625463782,56.9823556 0.47603739,57.8948682 C0.34309576,58.8105826 0.263330781,59.762584 0.160699843,60.7364644 C0.0819983976,61.7082103 0.0506241728,62.693297 0.000106353304,63.7029308 C0.000638119825,64.7429817 0.0325441111,65.7654227 0.054878305,66.8257517 C0.0692360011,67.3540484 0.0830619306,67.885547 0.0958243271,68.4213146 C0.0952925606,68.9581495 0.192605834,69.491249 0.238337755,70.0328866 C0.356389923,71.1124263 0.47603739,72.2058405 0.597811923,73.3093938 C0.753619514,74.407077 1.00035918,75.5026258 1.20189869,76.6104481 C1.31622849,77.2001126 1.42843123,77.787109 1.5416975,78.3719709 C1.69856862,78.9466938 1.85437621,79.5187484 2.00965204,80.0881349 C2.16545963,80.6569878 2.32126722,81.2231725 2.47547951,81.7861554 C2.64032713,82.3464702 2.76050637,82.9174576 2.97480827,83.4537589 C3.36937903,84.5375677 3.75756859,85.6069684 4.13937695,86.6582256 C4.2356267,86.9207731 4.3324082,87.181186 4.42865794,87.441599 C4.54351951,87.6924065 4.65838108,87.9442813 4.77271088,88.1940216 C5.00243402,88.6919013 5.22949832,89.1860456 5.45443556,89.6737862 C6.29941256,91.6492959 7.3884704,93.4188233 8.36426197,95.0805567 C8.48869533,95.2892072 8.61046987,95.4935887 8.73330793,95.6979702 C8.86837663,95.8906117 9.00291356,96.082186 9.13638696,96.2721594 C9.40758788,96.6483707 9.67506644,97.0181785 9.93563204,97.3821162 C10.4636762,98.1051891 10.9800215,98.7941094 11.4841361,99.4488772" id="Fill-107" fill="#FEFEFE"></path>
                    <g id="Group-111" transform="translate(24.993026, 22.465420)">
                        <mask id="mask-2" fill="white">
                            <use xlink:href="#path-1"></use>
                        </mask>
                        <g id="Clip-110"></g>
                        <path d="M86.575897,0.49601196 C90.4524749,5.35100585 94.0275412,11.1894855 96.6284113,17.927137 C99.2361943,24.649313 100.838407,32.26319 100.92668,40.263951 L100.941038,41.0153064 L100.945824,41.3760424 L100.935188,41.7559891 C100.919767,42.2629406 100.904346,42.7709593 100.889456,43.2805789 C100.869781,43.7885976 100.868718,44.3046208 100.833621,44.8094377 C100.793207,45.3126537 100.753324,45.816937 100.711315,46.3222875 C100.670369,46.8281717 100.628359,47.3356567 100.587413,47.8436754 C100.520942,48.3516942 100.454471,48.8602465 100.388001,49.3709334 C100.322062,49.8816202 100.256122,50.3923071 100.188588,50.9045949 C100.096061,51.4126136 100.004597,51.9222332 99.911006,52.4329201 C99.1729141,56.5168141 98.0173854,60.5964391 96.4305941,64.5666693 C93.2639245,72.5049952 88.3626325,80.0121456 81.9803707,86.1969531 C76.0128868,92.0274283 68.954218,96.5633096 61.4961925,99.539915 C54.0365718,102.531996 46.1972697,103.959998 38.6493757,104.027769 C31.0924417,104.094473 23.8396781,102.785471 17.3335147,100.527136 C10.8161842,98.2704019 5.05023983,95.0760742 0.167559631,91.5017997 C4.87316158,95.3071373 10.5678493,98.7330618 17.0979421,101.182438 C23.6158044,103.636083 30.9642859,105.100372 38.6515028,105.125453 C46.3296796,105.151601 54.3391469,103.752415 61.9657424,100.727782 C69.5907425,97.7212934 76.8057507,93.096829 82.899795,87.1430846 C89.4149984,80.8302051 94.4189214,73.1602967 97.6286641,65.0474728 C100.85755,56.9394515 102.24812,48.3602323 102.062533,40.2442066 C101.884923,32.1014992 100.125308,24.3824965 97.3154536,17.6485805 C94.5157029,10.90079 90.6923016,5.14182167 86.575897,0.49601196" id="Fill-109" fill="#FEFEFE" mask="url(#mask-2)"></path>
                    </g>
                    <path id="Fill-112" fill="#FEFEFE"></path>
                    <path d="M12.5606443,56.2129101 L12.5718114,56.060291 C12.6425363,55.1242986 12.7090072,54.2347322 12.6999671,53.3969282 C12.1527794,54.6472306 11.7598039,55.9242146 11.5290172,57.199064 L11.4737135,57.4770869 C11.4152192,57.7705851 11.3535343,58.0726214 11.3093977,58.3879986 L11.0419191,60.9051459 C11.0264979,61.1986441 11.0174578,61.5049495 11.0089496,61.8112549 L10.9610906,63.5348897 C10.9594953,63.8726795 10.9706624,64.1853885 10.9818295,64.4986311 L10.9945919,64.8924523 C11.0089496,65.7425299 11.1004134,66.5616567 11.1886867,67.3525009 L11.2030444,67.4715011 C11.3019529,68.2804888 11.4731818,69.0713331 11.6406882,69.8109486 C11.8087264,70.4176894 12.0012259,70.9972149 12.2134008,71.530848 C12.2516879,71.0046858 12.2617915,70.408084 12.2453067,69.7154282 C12.2575374,69.2228849 12.2421161,68.7372788 12.2266949,68.2233901 C12.2171231,67.9229547 12.2096784,67.6582727 12.2043607,67.3882543 C12.2022337,67.0750117 12.1921301,66.7612354 12.1820265,66.4421228 L12.1793677,66.3514052 C12.1618194,65.8268439 12.1479935,65.3513768 12.1533111,64.8615016 C12.1533111,64.6875372 12.1506523,64.5034338 12.1469299,64.3187968 C12.1432076,64.0589174 12.1394852,63.8033072 12.1426758,63.5690423 L12.2187184,60.9376975 L12.3798437,58.5043306 C12.3926061,58.3063527 12.4112179,58.1115766 12.4303615,57.9184014 L12.4378062,57.8490291 C12.454291,57.676132 12.4707758,57.5053694 12.4840699,57.3330059 C12.5064041,56.9541264 12.5335242,56.5805833 12.5606443,56.2129101" id="Fill-114" fill="#FEFEFE"></path>
                    <polygon id="Fill-116" fill="#FEFEFE" points="12.6774734 57.7588847 12.6774734 57.7588847 12.6780592 57.7588847"></polygon>
                    <path d="M103.847408,97.6687306 C107.89681,92.7961268 111.100703,87.0585038 113.111844,81.0759432 C114.10997,78.1009387 114.818283,75.1659567 115.218171,72.352643 C115.624973,69.5782845 115.815345,66.7270829 115.781844,63.8774822 C115.691975,58.9717932 114.900707,54.1712299 113.428777,49.5953261 L114.036054,52.3115185 C114.159424,53.0356586 114.270032,53.7560633 114.381171,54.4839388 L114.440729,54.8772264 C114.498159,55.2513032 114.55559,55.62538 114.61568,55.9957214 C114.696508,56.7689558 114.76032,57.5389883 114.825196,58.317559 L114.849125,58.6089227 C114.884754,59.0246228 114.919318,59.4413903 114.957606,59.8474851 L115.027799,63.8465315 C114.952288,66.7249484 114.687468,69.4507462 114.217918,72.1877504 C113.757409,74.9316917 113.004959,77.7903642 111.982904,80.6831892 C109.921245,86.5104626 106.745003,92.0794576 102.797701,96.788236 C98.6212063,101.786777 93.3944732,106.05264 87.6833008,109.122098 C82.4023274,111.987174 76.3720951,113.939204 70.2445495,114.766869 C67.0491644,115.188972 64.1600769,115.329851 61.3395873,115.201246 C58.4685798,115.087048 55.5874688,114.746057 52.7776145,114.18841 C50.1272902,113.637167 47.440274,112.856462 44.7878225,111.868174 L42.9069644,111.128558 L41.0665204,110.298759 C40.6517425,110.12266 40.2337741,109.906005 39.8636646,109.713897 C39.6743557,109.615175 39.4855786,109.519121 39.2968014,109.424134 L39.2537284,109.402255 C38.7533361,109.151447 38.1343598,108.838738 37.5664332,108.49668 C33.7818509,106.39043 30.1344643,103.706255 26.7173326,100.511928 C29.8802799,103.902632 33.4064237,106.789587 37.2133402,109.104488 C37.7663774,109.465757 38.3592971,109.793408 38.9330731,110.108785 C39.1170644,110.209108 39.3015873,110.311032 39.4855786,110.415624 C39.8849352,110.63975 40.2880142,110.866544 40.6980062,111.056518 L42.5458949,111.958891 L44.4379202,112.765744 C47.0972845,113.840481 49.8236515,114.69803 52.5372561,115.313842 C55.3997552,115.937126 58.3515912,116.330413 61.3076813,116.480364 C62.096291,116.52519 62.9210609,116.547069 63.761252,116.547069 L63.7617838,116.547069 C65.877151,116.547069 68.1169516,116.400319 70.4200324,116.110557 C76.7028539,115.302636 82.9016562,113.312718 88.3442865,110.356925 C94.2256243,107.198884 99.5858308,102.811353 103.847408,97.6687306" id="Fill-118" fill="#FEFEFE"></path>
                    <path d="M30.7902919,23.456483 C35.5559835,20.1009981 40.2546725,17.5945235 45.1378844,15.800449 C48.2231938,14.6632769 51.3728469,13.8110648 54.497507,13.2672927 C57.46051,12.7555386 60.4889204,12.4961929 63.4971236,12.4961929 C63.8938214,12.4961929 64.2905192,12.5009956 64.6877488,12.5095337 C70.8594311,12.637072 77.1959609,13.9167242 83.0134867,16.2102792 C87.6866509,18.0369053 92.1678474,20.5225682 96.6990299,23.8033445 C93.98383,21.2547128 89.5829303,17.7892995 83.4505988,15.1456812 C77.680932,12.6354711 71.203484,11.237886 64.7191231,11.1066123 C61.1770263,11.0287019 57.6540731,11.3013884 54.2576803,11.9156001 C51.0011421,12.5095337 47.7887406,13.4396562 44.7092806,14.6824877 C38.1930137,17.2988907 33.5958921,20.8272727 30.7902919,23.456483" id="Fill-120" fill="#FEFEFE"></path>
                    <path d="M32.0877491,111.832954 C32.0303183,111.799869 31.9712922,111.76625 31.9133297,111.733164 C31.611818,111.544258 31.3129653,111.356419 31.0173031,111.169114 C28.6599821,109.696287 26.5887515,108.215455 24.7578793,106.92513 C26.4558098,108.852079 28.7849472,110.880419 31.5490696,112.72839 L32.0877491,111.832954 Z" id="Fill-122" fill="#FEFEFE"></path>
                </g>
            </g>
        </g>
    </g>
</svg>