<?xml version="1.0" encoding="UTF-8" standalone="no"?>
<svg width="207px" height="72px" viewBox="0 0 207 72" version="1.1" xmlns="http://www.w3.org/2000/svg" xmlns:xlink="http://www.w3.org/1999/xlink">
    <!-- Generator: Sketch 3.8.3 (29802) - http://www.bohemiancoding.com/sketch -->
    <title>RSB LOGO</title>
    <desc>Created with Sketch.</desc>
    <defs>
        <polygon id="path-1" points="12.8476283 0.742166667 0.61355362 0.742166667 0.61355362 17.4007199 12.8476283 17.4007199 12.8476283 0.742166667"></polygon>
        <polygon id="path-3" points="0 72.2582077 206.209466 72.2582077 206.209466 0.936271795 0 0.936271795"></polygon>
    </defs>
    <g id="HOME" stroke="none" stroke-width="1" fill="none" fill-rule="evenodd">
        <g id="-HOME" transform="translate(-133.000000, -34.000000)">
            <g id="HEADER">
                <g id="RSB-LOGO" transform="translate(133.000000, 33.000000)">
                    <path d="M36.9494063,37.3721628 C37.6369086,37.6285987 37.5291937,38.776009 37.2013656,39.7596372 C36.4698407,41.951509 34.2359267,44.7367397 32.5340308,43.9421628 C32.2286824,43.7989705 31.9476869,43.5444064 31.6929176,43.1822141 C33.1718905,40.1143423 35.1716416,38.2425474 36.9494063,37.3721628 L36.9494063,37.3721628 Z M57.9481982,50.5627013 C57.131438,49.743791 56.4954516,48.320291 57.9238452,44.9276628 C59.615438,40.910791 61.77161,38.1648679 63.7919674,37.2373936 C64.1010624,37.3291115 64.3651982,37.5555987 64.5328588,37.9037526 C64.8569403,38.5710474 65.1285692,40.2687654 63.3320715,44.1564833 C60.9304968,49.3535218 58.9373023,50.6244705 57.9481982,50.5627013 L57.9481982,50.5627013 Z M84.5631529,49.8139833 C83.8953204,48.8883808 83.5459493,47.4049833 84.8497683,44.5617269 C87.0359131,39.7877141 90.1849357,36.8396372 91.536524,37.3908808 C92.0694787,37.6089449 92.2839719,38.3707654 92.3701439,38.9893936 C92.342981,39.1017013 92.3158181,39.2121372 92.2867819,39.3225731 C92.1593973,39.7671244 92.0376326,40.2032526 91.9280443,40.6253423 C90.4490715,45.4901372 87.9847412,48.8687269 86.0336959,49.7877782 C85.5382072,50.0217526 85.1036009,50.0732269 84.7738995,49.9384577 C84.6980308,49.9066372 84.6296552,49.8654577 84.5631529,49.8139833 L84.5631529,49.8139833 Z M102.382013,42.8799192 C102.305207,42.6000859 102.176886,42.4157141 101.999859,42.3333551 C101.852805,42.2640987 101.570872,42.2182397 101.321723,42.6684064 C99.1589946,46.6019833 95.2334878,50.619791 94.0804697,50.0807141 C94.0664199,50.0732269 94.0561167,50.0610603 94.042067,50.0517013 C94.0289538,50.0245603 94.0167774,49.999291 94.0055376,49.9684064 C92.985524,47.2000218 96.3836959,36.6599449 107.131773,21.8914833 C107.856741,20.8984962 107.799605,19.1652141 107.003452,17.9466756 L106.195121,16.7075474 C106.063053,16.5053936 105.895393,16.3528423 105.712746,16.2676756 C105.368058,16.1067013 105.021497,16.2021628 104.81075,16.5166244 C99.6807095,24.1554192 96.109257,30.9228936 93.8163339,36.4175474 C93.4650896,35.8391628 92.8178633,35.3281628 91.8812118,34.8901628 C91.7060579,34.8087397 91.517791,34.7273167 91.3154742,34.6477654 C87.8582932,33.2925859 85.1251439,34.8377526 81.8862027,39.9795731 C80.318248,42.4681244 79.6335557,44.6899449 79.8386824,46.6085346 C78.9769629,48.3137397 76.5875647,50.3549321 75.7370851,49.9833808 C75.3380715,49.8074321 75.3052887,49.0334449 75.3184018,48.5888936 L75.3418181,47.845791 C75.6621529,45.5350603 77.2076281,41.97865 80.6048633,38.2528423 C80.791257,38.1779705 80.9673475,38.0928038 81.1228317,37.9898551 C81.3963339,37.8054833 81.3925873,37.5836756 81.3410715,37.4301885 C81.2090036,37.0305603 80.6545059,36.7385603 80.3360443,36.5991115 L80.234886,36.5551244 C79.5380172,36.275291 78.1986054,35.9093551 77.5925919,36.3127269 C77.4961167,36.3782397 77.3631122,36.4428167 77.2207412,36.4980346 C77.108343,36.5242397 76.9921982,36.5420218 76.8741801,36.5569962 C76.8011213,36.5626115 76.7271258,36.5635474 76.6475104,36.5626115 L76.6437638,36.5607397 L76.6100443,36.5607397 C76.5191891,36.5092654 76.4311439,36.4680859 76.3740081,36.4474962 C76.1332887,36.2556372 75.9731213,36.0300859 75.8794561,35.7605474 C75.5816009,34.8892269 76.0049674,33.6519705 77.1364425,32.0787269 C77.2207412,31.9598679 77.229171,31.8101244 77.1561122,31.6557013 C77.0352842,31.3983295 76.7102661,31.1512526 76.1848045,30.9210218 C75.1872706,30.4839577 73.5968362,30.1704321 73.2025059,30.7160603 C72.9767729,31.0323936 72.7866326,31.3356244 72.6152253,31.6332397 L72.594619,31.6070346 L72.554343,31.7380603 C72.1543928,32.4549577 71.9061801,33.1231885 71.828438,33.7418167 C70.7990579,36.1554962 69.7528181,38.2547141 68.1333475,39.3721756 C68.1127412,39.2785859 68.0977548,39.1840603 68.0715285,39.0914064 C67.9694335,38.7254705 67.833619,38.374509 67.6622118,38.03665 L67.7015511,38.0600474 L67.441162,37.6519962 C67.400886,37.5855474 67.36061,37.5200346 67.3184606,37.4563936 L67.2444652,37.3412782 C67.2023158,37.2738936 66.1785557,35.6800603 64.4223339,34.5953551 C61.5477502,32.8143423 58.3425285,34.8237141 54.9490398,40.5579577 C54.0517276,42.0741115 53.4532072,43.4452013 53.1450489,44.6918167 C52.2908226,46.003009 51.20899,47.3310474 50.1224742,48.3605346 C45.9515647,52.3072141 42.2339946,50.5720603 44.8809719,44.1695859 C46.8011077,39.5256628 48.9891258,36.7554064 50.9973068,36.3033679 C51.0094833,36.3333167 51.0244697,36.3623295 51.0347729,36.3932141 C51.5433747,37.8887782 50.195533,39.8560346 48.663171,41.75965 C48.4814606,41.9842654 48.4318181,42.2528679 48.5208,42.5158551 C48.6088452,42.7732269 48.8177186,42.991291 49.1099538,43.1269962 L50.117791,43.5397269 C50.7303611,43.7905474 51.4468995,43.6145987 51.749438,43.1419705 C53.5834018,40.2893551 54.2109584,38.0609833 53.6133747,36.5167526 C53.3314425,35.7867526 52.7797548,35.2270859 51.9892208,34.8508551 C51.1696507,34.4633936 49.7628,34.0899705 48.5985421,34.2883808 C45.1600941,34.8733167 40.923619,40.7114449 40.2792027,46.0067526 C36.5709991,50.6104321 33.4079267,51.587509 31.939257,50.9024321 C30.3029267,50.1378038 29.9188995,47.7082141 31.0466281,44.6918167 C31.4971575,45.22715 32.0778814,45.7568679 32.7766235,46.0825603 C34.4251303,46.8528038 36.1129765,46.2790987 37.797076,44.3792269 C38.6269493,43.4423936 41.2720534,40.1929577 40.4655964,37.6688423 C40.3719312,37.3749705 40.2295602,37.1073038 40.0506597,36.8583551 L39.6638226,36.4109962 C39.660076,36.4081885 39.6553928,36.4053808 39.6516462,36.4025731 C39.6432163,36.3950859 39.6179267,36.3744962 39.576714,36.3426756 C39.434343,36.2172654 39.2760489,36.1002782 39.1055783,35.9917141 C38.6765919,35.6903551 38.0274923,35.2738808 37.2669312,34.9191756 C36.8388814,34.7188936 36.4211348,34.5588551 36.0211846,34.4456115 C33.5915104,33.7483679 29.9619855,35.7296628 27.7290081,40.8639962 C26.2762615,44.20515 26.0308588,46.83315 26.9806235,48.8996115 C27.635343,50.3249833 29.4590036,51.8823167 30.8340081,52.5243423 C34.4167005,54.1986628 39.0624923,51.2833423 41.1409222,49.5304064 C42.1309629,50.8565731 43.3589131,51.7849833 44.6393158,52.2828808 C47.3715285,53.3198551 50.8436959,51.4845603 53.4569538,49.0306372 C53.7107864,49.5407013 54.050791,50.0123936 54.483524,50.4541372 C55.5447502,51.5397782 56.2959448,52.0376756 57.2887955,52.5009449 C58.3715647,53.0072654 61.3529267,53.5454064 65.6221846,47.6258551 C66.5344833,46.3595859 67.8130127,44.2519449 68.1839267,41.9908167 C70.9826416,41.4957269 73.0348452,39.2523808 74.2412525,37.5219064 C74.3911167,37.5995859 74.5466009,37.6735218 74.707705,37.74465 C74.9755873,37.8616372 75.2593928,37.9673936 75.5535014,38.063791 C71.9127367,44.0460474 70.0263204,47.6501885 71.9717457,50.3493167 C72.5131303,51.1017782 73.1257005,51.8476885 73.9508905,52.2089449 C74.3592706,52.3886372 74.8051167,52.4719321 75.3315149,52.4625731 C77.3612389,52.5823679 78.5086371,51.2094064 80.8708724,49.3348038 C82.6636235,51.9319192 86.1311077,54.2014705 90.5595964,49.8008808 C90.5961258,50.0432782 90.6420217,50.2650859 90.705714,50.456009 C91.0504018,51.4808167 91.6461122,52.2164321 92.4347729,52.5851756 C92.8525195,52.7807782 93.3208452,52.8622013 93.8238271,52.8444192 C94.539429,52.8809192 95.3028,52.6422654 96.0802208,52.1864833 L96.1467231,52.152791 L96.1439131,52.1481115 C98.3169448,50.8406628 100.597691,47.8813551 102.234022,44.652509 C102.466311,44.1948551 102.531877,43.4161885 102.382013,42.8799192 L102.382013,42.8799192 Z" id="Fill-1" fill="#FFFFFF"></path>
                    <path d="M63.8533181,57.7202577 C62.555119,59.2027192 60.877576,60.5850397 59.0932548,61.9140141 C57.3108068,63.2439244 55.2810828,64.4268987 53.0490421,65.3319115 C50.8170014,66.231309 48.3863905,66.8555526 45.8508747,67.1016936 C44.5854584,67.2336551 43.2938158,67.2607962 41.9946801,67.2149372 C41.6715353,67.1971551 41.3399606,67.1840526 41.0233724,67.1578474 C40.7039742,67.1316423 40.3939425,67.1082449 40.0426982,67.0680013 C39.3832955,67.0034244 38.7557389,66.9135782 38.1160059,66.7919115 C35.5711235,66.3183474 33.0955534,65.3543731 30.9412548,63.9523987 C28.7869561,62.5494885 26.9679787,60.7113859 25.6463633,58.6542833 C24.3163181,56.5981167 23.4583452,54.3557064 22.9843995,52.1638346 C22.502024,49.9691551 22.3830692,47.8306295 22.4486348,45.8708603 C22.5123271,43.9092192 22.7699063,42.122591 23.0715081,40.5587064 C23.3843498,38.9957577 23.7449606,37.651809 24.0765353,36.556809 C24.2348294,36.0083731 24.4006167,35.5245141 24.5354946,35.1014885 C24.6132367,34.8834244 24.6834855,34.6840782 24.7471778,34.5015782 C25.0131869,34.4379372 25.2407932,34.3789756 25.4122005,34.3293731 C27.9327299,33.6695654 30.3736439,32.8076038 32.6684403,31.7425526 C39.1107299,28.7561038 43.8436303,24.4369372 45.6579244,19.8922192 C46.5664765,17.6170526 46.7406937,15.34095 46.1796394,13.1284885 C45.5801824,10.7634756 44.1433588,8.5145141 41.9085081,6.44150128 C40.6178023,5.24261667 39.062024,4.30016795 37.2851959,3.64129615 C27.4231914,-0.0161910256 12.9378747,5.57766795 6.65294253,9.04610385 C6.38599683,9.19397564 6.24268914,9.41859103 6.25205566,9.67877051 C6.25861222,9.94362949 6.42908281,10.2187833 6.71850814,10.4359115 L9.06763032,12.1897833 C9.40014163,12.4387321 9.77854887,12.6427577 10.1916122,12.7962449 C11.506671,13.2838474 13.0043769,13.1977449 14.0075308,12.576309 C20.3936213,8.62495 29.9980466,5.38112949 35.9954267,7.60669359 C38.1197525,8.39378333 39.6596077,9.81728333 40.5719063,11.83695 C41.5610104,14.0278859 40.0998339,17.9932833 36.9358249,21.7069244 C33.9694493,25.1903346 29.8285127,28.1000397 25.276386,29.9007064 C23.6334991,30.5511551 21.9465896,31.0565397 20.225024,31.4252833 C20.1454086,31.4308987 20.0817163,31.4430654 20.0376937,31.4664628 C19.2715127,31.6265013 18.4969018,31.7593987 17.7147977,31.8642192 L23.9051281,19.0686295 C24.652576,17.5197192 24.5551643,14.9038859 23.6878249,13.2379885 L22.4430149,10.8505141 C22.270671,10.5192064 22.0608611,10.3002064 21.8370014,10.2159756 C21.4979335,10.0905654 21.1747887,10.2983346 20.9705986,10.7700269 L11.7764267,32.1234628 C10.2337615,32.0588859 8.67049005,31.8941679 7.08661222,31.6283731 C6.82434977,31.58345 6.748481,31.69295 6.73068462,31.7949628 C6.60985656,32.5081167 9.15567557,35.4215654 9.98648552,35.7304115 C10.0305081,35.7463218 10.0726575,35.7556808 10.1073136,35.7594244 C10.141033,35.7622321 10.1747525,35.7631679 10.2094086,35.7650397 L3.80177511,50.6467449 C3.12082941,52.2274756 3.05432715,54.6430269 3.65284751,56.0337705 L4.19235882,57.2860013 C4.30101041,57.5377577 4.44806471,57.7034115 4.61385204,57.7661167 C4.9182638,57.8784244 5.2432819,57.6481936 5.48400136,57.1493603 L15.8059018,35.8118346 C16.8240421,35.7603603 17.8393724,35.6770654 18.8509561,35.5610141 C18.8762457,35.5582064 18.9005986,35.5544628 18.9258882,35.5507192 L18.6261597,36.1992962 C18.442576,37.0912064 18.2646122,38.0795141 18.1100647,39.1745141 C17.8655986,40.9798603 17.6838882,43.0556808 17.7354041,45.371091 C17.7859833,47.6827577 18.0604222,50.2424372 18.7966303,52.9097449 C19.520662,55.5705013 20.7420557,58.3416936 22.5507299,60.8414756 C24.3481643,63.3440654 26.744119,65.5087962 29.4257525,67.0511551 C32.1092593,68.5981936 35.0512819,69.5359628 37.9595851,69.9037705 C38.6826801,69.9954885 39.4207615,70.0610013 40.1251235,70.0806551 C40.4566982,70.0965654 40.8266756,70.100309 41.1882231,70.1040526 C41.5507072,70.1087321 41.8972683,70.0984372 42.2513226,70.0928218 C43.65911,70.045091 45.0509742,69.9168731 46.4025624,69.6772833 C49.1132321,69.2168218 51.6665443,68.3557962 53.9613407,67.2280397 C56.2589471,66.0946679 58.2980376,64.6908218 60.0542593,63.1671808 C61.8142276,61.6416679 63.2950738,59.9991679 64.523024,58.3735141 C65.7228747,56.7806167 65.0222593,56.3828603 63.8533181,57.7202577" id="Fill-3" fill="#FFFFFF"></path>
                    <path d="M173.321662,37.3453962 C174.009164,37.6018321 173.901449,38.7492423 173.573621,39.7328705 C172.842096,41.9247423 170.608182,44.7099731 168.906286,43.9153962 C168.600938,43.7722038 168.319943,43.5176397 168.065173,43.1554474 C169.544146,40.0875756 171.543897,38.2157808 173.321662,37.3453962 M187.116667,37.3453962 C187.804169,37.6018321 187.696454,38.7492423 187.367689,39.7328705 C186.637101,41.9247423 184.403187,44.7099731 182.700354,43.9153962 C182.395943,43.7722038 182.114947,43.5176397 181.860178,43.1554474 C183.339151,40.0875756 185.338902,38.2157808 187.116667,37.3453962 M205.703581,32.8886526 C205.50501,32.6996013 205.253988,32.4749859 204.929906,32.2981013 C204.606762,32.1193449 204.240531,31.8685244 203.806861,31.7159731 C203.376001,31.5531269 202.898309,31.3509731 202.374721,31.2414731 C202.113395,31.1787679 201.841766,31.1085756 201.561707,31.0524218 C201.535481,31.0486782 201.509255,31.0449346 201.483029,31.041191 C202.511472,29.4754346 203.67292,27.7945628 204.988915,25.986409 C205.713884,24.9934218 205.656748,23.2610756 204.860594,22.0416013 L204.052264,20.8024731 C203.920196,20.6003192 203.752535,20.4487038 203.569888,20.3626013 C203.2252,20.2016269 202.878639,20.2970885 202.667893,20.61155 C200.702798,23.5381013 198.636544,27.1235244 196.798834,30.8193833 C195.517495,30.8708577 194.32139,30.9700628 193.258291,31.0215372 C192.168965,31.0636526 191.197657,31.0982808 190.400567,31.0374474 C188.863522,30.9878449 187.737667,30.6621526 187.603725,31.0430628 C187.53535,31.2171397 187.71425,31.4997808 188.094531,31.8619731 C188.191943,31.9508833 188.291228,32.0528962 188.423295,32.1446141 C188.560983,32.2325885 188.715531,32.3233705 188.886001,32.4188321 C189.055535,32.5133577 189.240056,32.610691 189.440499,32.7117679 C189.637196,32.793191 189.842323,32.866191 190.062436,32.9448064 C190.943825,33.2761141 192.020974,33.4511269 193.200219,33.5484603 C193.92706,33.6027423 194.689495,33.6083577 195.470662,33.596191 C193.899897,37.0262551 192.598888,40.4319859 191.825214,43.3866141 C191.807418,43.3978449 191.784938,43.4483833 191.756838,43.5588192 C191.377495,45.0366013 190.4474,45.9753064 190.446463,45.9799859 C186.737323,50.5836654 183.57425,51.5607423 182.106517,50.8756654 C180.470187,50.1110372 180.085223,47.6814474 181.212952,44.66505 C181.664418,45.2003833 182.245142,45.7301013 182.943884,46.0557936 C184.591454,46.8260372 186.280237,46.2523321 187.964336,44.3524603 C188.79421,43.4156269 191.439314,40.166191 190.632857,37.6420756 C190.539191,37.3482038 190.39682,37.0805372 190.216983,36.8315885 L189.830146,36.3842295 C189.8264,36.3814218 189.822653,36.3786141 189.818906,36.3758064 C189.80954,36.3683192 189.78425,36.3477295 189.743974,36.315909 C189.601603,36.1904987 189.443309,36.0735115 189.271902,35.9649474 C188.843852,35.6635885 188.193816,35.2471141 187.434191,34.892409 C187.006142,34.6921269 186.587458,34.5320885 186.188445,34.4188449 C183.757834,33.7216013 180.129246,35.7028962 177.896268,40.8372295 C177.034549,42.8185244 176.600879,44.5471269 176.585893,46.0586013 C172.905789,50.5911526 169.770816,51.5569987 168.311513,50.8756654 C167.269019,50.3880628 166.737001,49.2228705 166.778214,47.6617936 C166.781024,47.6599218 166.782897,47.65805 166.784771,47.6552423 L166.779151,47.6458833 C166.805377,46.7614603 167.01144,45.7516269 167.418884,44.66505 C167.869413,45.2003833 168.450137,45.7301013 169.148879,46.0557936 C170.797386,46.8260372 172.485232,46.2523321 174.169332,44.3524603 C174.999205,43.4156269 177.644309,40.166191 176.837852,37.6420756 C176.744187,37.3482038 176.601816,37.0805372 176.422915,36.8315885 L176.035142,36.3842295 C176.031395,36.3814218 176.027648,36.3786141 176.023902,36.3758064 C176.015472,36.3683192 175.989246,36.3477295 175.94897,36.315909 C175.806599,36.1904987 175.648305,36.0735115 175.477834,35.9649474 C175.048848,35.6635885 174.399748,35.2471141 173.639187,34.892409 C173.211137,34.6921269 172.79339,34.5320885 172.39344,34.4188449 C169.963766,33.7216013 166.334241,35.7028962 164.101264,40.8372295 C162.926703,43.5401013 162.541739,45.7750244 162.940752,47.6252936 C160.980341,49.6983064 159.672775,50.0502038 159.020866,49.7769218 C158.603119,49.601909 158.487911,48.8279218 158.454191,48.3824346 L158.400802,47.6402679 C158.449508,46.1662295 158.92439,44.1746397 160.076472,41.9790244 C161.687513,38.9064731 163.000698,37.8863449 163.145879,37.7843321 C163.400648,37.5999603 163.372549,37.3781526 163.30511,37.2237295 C163.131829,36.8250372 162.545486,36.5321013 162.212974,36.3926526 L162.108069,36.3486654 C161.381228,36.0697679 160.002476,35.7028962 159.438612,36.1072038 C159.34963,36.1717808 159.223182,36.2363577 159.088305,36.2915756 C158.647142,36.3973321 157.924983,36.1249859 157.668341,35.5550244 C157.278694,34.6837038 157.345196,33.8376526 158.31182,32.264409 C158.383943,32.14555 158.376449,31.9958064 158.287467,31.8413833 C158.139476,31.5830756 157.788232,31.3369346 157.238418,31.1067038 C156.194988,30.6696397 154.547418,30.3336526 154.234576,30.9017423 C153.158363,32.8587038 153.118087,34.4113577 153.628562,35.549409 C148.935938,46.2083449 144.936436,50.441409 143.822757,49.8976526 C143.807771,49.8901654 143.798404,49.8779987 143.783418,49.8677038 C143.770305,49.8377551 143.758128,49.81155 143.747825,49.7797295 C142.860816,47.2715244 144.811861,37.4399218 150.88511,28.6396782 C151.548259,28.6003705 152.226395,28.5432808 152.914834,28.4805756 C155.61239,28.1951269 157.916553,28.0444474 159.606273,28.1530115 C161.286626,28.2484731 162.376888,28.4805756 162.537056,28.1043449 C162.609178,27.9321397 162.416228,27.6597936 161.980685,27.3050885 C161.763381,27.1282038 161.488006,26.9194987 161.140508,26.7613321 C160.793947,26.6012936 160.396807,26.3719987 159.936911,26.2456526 C159.478888,26.1071397 158.96935,25.9330628 158.418599,25.8544474 C158.143223,25.8067167 157.855671,25.7533705 157.561562,25.7131269 C157.261834,25.6878577 156.959295,25.6625885 156.653947,25.6373192 C155.538395,25.5680628 154.328241,25.6054987 153.100291,25.712191 C153.470268,25.2667038 153.847739,24.8240244 154.242069,24.3897679 C155.102852,23.4426397 154.918332,21.5109474 154.111875,20.2222167 L153.294178,18.9138321 C153.160237,18.7004474 152.991639,18.5394731 152.807119,18.448691 C152.457748,18.2792936 152.10744,18.3813064 151.893884,18.7126141 C150.405544,21.0177295 148.879739,23.6008064 147.440105,26.2896397 C146.899657,26.3280115 146.398549,26.3523449 145.949893,26.3439218 C144.350092,26.3832295 143.159608,26.1239859 143.043463,26.5114474 C142.982581,26.6892679 143.184897,26.9616141 143.602644,27.3013449 C143.710359,27.3837038 143.81901,27.4801013 143.962318,27.5633962 C144.111246,27.6438833 144.277033,27.7262423 144.458743,27.8104731 C144.64139,27.8956397 144.839961,27.9826782 145.054454,28.0706526 C145.263327,28.1417808 145.481567,28.2016782 145.71573,28.267191 C145.910553,28.3261526 146.119427,28.3729474 146.330173,28.4178705 C142.21078,36.5405244 139.135752,45.2284603 140.3534,50.0867038 C140.370259,50.1578321 140.387119,50.2308321 140.406789,50.2944731 C140.755223,51.3773064 141.359363,52.1541013 142.156454,52.5434346 C142.57982,52.7502679 143.054703,52.8363705 143.562368,52.8176526 C144.287336,52.8560244 145.059137,52.6042679 145.845924,52.1222808 L145.9143,52.0867167 L145.910553,52.0820372 C148.109811,50.7015885 150.410228,46.9851397 152.199232,43.6411782 C153.931101,40.4048449 154.800314,38.7389474 155.399771,37.3510115 C156.08259,37.6982295 156.85439,37.8685628 157.584979,37.8582679 C154.571771,43.8405244 153.064698,47.4437295 155.292056,50.1437936 C155.913056,50.8953192 156.604305,51.6412295 157.467897,52.0034218 C157.89501,52.1821782 158.350223,52.266409 158.874748,52.25705 C160.297522,52.3403449 162.044377,51.6927038 164.134047,50.0661141 C164.9864,51.0909218 166.212476,52.0333705 167.206264,52.4975756 C170.787083,54.1709603 175.429128,51.2603192 177.509431,49.5073833 C178.330875,50.7362167 179.828581,51.9500756 181.000332,52.4975756 C184.499662,54.1325885 189.004956,51.3941526 191.150825,49.6318577 C191.184544,49.8414987 191.225757,50.0436526 191.27821,50.2327038 C191.296006,50.2991526 191.311929,50.368409 191.331599,50.4292423 C191.676286,51.45405 192.272933,52.1896654 193.060657,52.558409 C193.478404,52.7540115 193.94673,52.8354346 194.449712,52.8176526 C195.165314,52.8541526 195.928685,52.6154987 196.706105,52.1597167 L196.772608,52.1260244 L196.769798,52.1213449 C198.942829,50.8148321 201.223576,47.8545885 202.859906,44.6257423 C203.092196,44.1680885 203.157762,43.3894218 203.008834,42.8531526 C202.931092,42.5733192 202.802771,42.3889474 202.625743,42.3065885 C202.478689,42.2373321 202.196757,42.1914731 201.947608,42.6416397 C199.784879,46.5752167 195.859372,50.5930244 194.706354,50.0539474 C194.692305,50.0464603 194.682001,50.0342936 194.667952,50.0249346 C194.654838,49.9977936 194.642662,49.9725244 194.631422,49.9416397 C193.802486,47.6936141 194.062875,43.0375244 199.945983,33.4567423 C201.268535,33.4436397 202.43092,33.4829474 203.379748,33.6027423 C204.983295,33.7917936 206.014549,34.0828577 206.190639,33.7169218 C206.268381,33.5484603 206.100721,33.2658192 205.703581,32.8886526" id="Fill-5" fill="#FFFFFF"></path>
                    <path d="M140.427582,29.8843282 C140.660809,29.3546103 140.899655,28.7612513 141.156297,28.1239051 C141.878456,26.3335333 142.776705,24.1060974 144.080524,21.9731872 C145.840492,18.9586615 146.328487,16.3484436 145.570736,14.0002769 C144.780202,11.5510333 143.102659,8.96046923 141.192827,7.24028974 C140.016392,6.19208462 138.640451,5.68202051 136.985388,5.68202051 C135.403383,5.68202051 133.616252,6.15184103 131.521899,7.11675128 C125.670637,9.88232821 114.863551,18.1313282 115.863895,29.5502128 C116.401533,35.6878282 123.57441,40.1398923 128.812166,43.3902641 C130.717315,44.5723026 132.363012,45.5943026 133.503854,46.5479821 C134.685908,47.5456487 135.365917,49.4034051 134.066781,51.1263923 C133.012112,52.160559 131.349555,52.6930846 129.237406,52.6930846 C124.556021,52.6930846 119.507469,49.1965718 115.186695,45.7758667 C113.634664,44.5255077 111.542184,43.7795974 109.591139,43.7795974 C108.841818,43.7795974 108.137456,43.8872256 107.495849,44.0996744 C107.257003,44.1876487 107.110886,44.313059 107.071546,44.4702897 C107.005981,44.7267256 107.197994,45.1263538 107.611057,45.5933667 C115.709347,54.9242641 123.393637,56.3168795 127.253578,56.3168795 C131.308343,56.3168795 134.822659,54.8194436 136.65475,52.3121744 C138.381935,49.9265718 139.13032,47.6701231 138.819352,45.7861615 C138.602048,44.4721615 137.878017,43.3724821 136.6688,42.5152 C135.541071,41.7122 134.054605,40.8352641 132.481967,39.9068538 C127.679754,37.0729564 121.704854,33.5464949 121.52127,29.4191872 C121.341433,25.8159821 123.328071,21.6418795 127.11308,17.6661872 C131.179085,13.3956872 136.706266,10.0498538 139.695121,10.0498538 C140.367637,10.0498538 140.884668,10.2248667 141.230293,10.5702128 C142.717695,12.0723282 141.207813,15.0625205 139.608949,18.2277256 C138.891474,19.6465462 138.150582,21.1140333 137.743139,22.3718795 C136.429953,26.3176231 137.781542,28.7266231 139.145306,30.0537256 C139.52465,30.4215333 139.755067,30.4992128 139.882451,30.4992128 C140.001406,30.4992128 140.1878,30.4355718 140.427582,29.8843282" id="Fill-7" fill="#FFFFFF"></path>
                    <path d="M187.625268,21.1641974 L183.476838,21.7912487 C182.696608,21.9091718 182.464318,22.5015949 182.957933,23.1174154 L185.480336,26.2610949 C185.973952,26.8759795 185.874667,26.9751846 185.259286,26.4838385 L182.143047,23.9896718 C181.527667,23.4964538 180.971295,23.7332359 180.899173,24.5184538 L180.073983,32.3275821 C180.002798,33.0650692 179.88759,33.0650692 179.816404,32.3275821 L178.990277,24.5193897 C178.918155,23.7341718 178.361784,23.4973897 177.747341,23.9896718 L174.630164,26.4838385 C174.014784,26.9751846 173.915499,26.8759795 174.408178,26.2610949 L176.932454,23.1174154 C177.426069,22.5015949 177.19378,21.9091718 176.413549,21.7912487 L172.264182,21.1641974 C171.485825,21.0462744 171.485825,20.8553513 172.264182,20.7383641 L176.413549,20.1113128 C177.19378,19.9933897 177.426069,19.4000308 176.932454,18.7860821 L174.408178,15.6405308 C173.915499,15.0256462 174.013848,14.9273769 174.628291,15.419659 L177.81197,17.9727872 C178.425476,18.4650692 179.005264,18.2320308 179.104549,17.4496205 L179.764888,12.2815949 C179.864173,11.5010564 180.026214,11.5010564 180.125499,12.2815949 L180.784902,17.4505564 C180.885124,18.2320308 181.463974,18.4660051 182.078418,17.9727872 L185.26116,15.4205949 C185.875603,14.9283128 185.973952,15.0265821 185.480336,15.6405308 L182.957933,18.7860821 C182.464318,19.4000308 182.696608,19.9933897 183.476838,20.1113128 L187.625268,20.7383641 C188.404562,20.8553513 188.404562,21.0462744 187.625268,21.1641974" id="Fill-9" fill="#BD9B68"></path>
                    <g id="Group-13" transform="translate(163.914027, 0.194105)">
                        <mask id="mask-2" fill="white">
                            <use xlink:href="#path-1"></use>
                        </mask>
                        <g id="Clip-12"></g>
                        <path d="M10.827505,3.66197949 L8.95982172,5.98955641 C8.5964009,6.44440256 8.76687149,6.88333846 9.34478552,6.97037692 L12.4141928,7.43364615 C12.9921068,7.52068462 12.9921068,7.66294103 12.4141928,7.74904359 L9.34478552,8.21418462 C8.76687149,8.30122308 8.5964009,8.74015897 8.95982172,9.19500513 L10.827505,11.5216462 C11.1918624,11.9774282 11.1197403,12.0504282 10.663591,11.6854282 L8.35755475,9.84077436 C7.90140543,9.47483846 7.49021538,9.65078718 7.4377629,10.2319795 L6.82612941,16.9648256 C6.77367692,17.5460179 6.68750498,17.5460179 6.63598914,16.9648256 L6.02435566,10.2319795 C5.97096652,9.65078718 5.55977647,9.47577436 5.10362715,9.84077436 L2.79759095,11.6854282 C2.34237828,12.0504282 2.26931946,11.9774282 2.63367692,11.5216462 L4.50136018,9.19500513 C4.8666543,8.74015897 4.69524706,8.30122308 4.11826968,8.21418462 L1.04698914,7.74904359 C0.469075113,7.66294103 0.469075113,7.52068462 1.04698914,7.43364615 L4.11826968,6.97037692 C4.69524706,6.88333846 4.8666543,6.44440256 4.50136018,5.98955641 L2.63367692,3.66104359 C2.26931946,3.20619744 2.34144163,3.13413333 2.7966543,3.49819744 L5.15139638,5.38777436 C5.60660905,5.75183846 6.03559548,5.57963333 6.10959095,5.00124872 L6.59758643,1.1762359 C6.6715819,0.596915385 6.79053665,0.596915385 6.86359548,1.1762359 L7.3525276,5.00124872 C7.42652308,5.57963333 7.8555095,5.75183846 8.30978552,5.38777436 L10.6654643,3.49913333 C11.1206769,3.13413333 11.1927991,3.20619744 10.827505,3.66197949" id="Fill-11" fill="#BD9B68" mask="url(#mask-2)"></path>
                    </g>
                    <path d="M167.389567,17.985609 L165.322376,18.2981987 C164.934603,18.3562244 164.819395,18.6519679 165.063861,18.9589423 L166.320847,20.5246987 C166.567186,20.832609 166.517544,20.8803397 166.211259,20.6341987 L164.65829,19.3941346 C164.352005,19.1489295 164.074757,19.2659167 164.039164,19.6561859 L163.627037,24.1878013 C163.591444,24.5799423 163.535245,24.5799423 163.498716,24.1878013 L163.087526,19.6571218 C163.05287,19.2659167 162.774684,19.1489295 162.468399,19.3941346 L160.915431,20.6341987 C160.609146,20.8803397 160.56044,20.832609 160.805843,20.5246987 L162.062829,18.9589423 C162.308232,18.6519679 162.193024,18.3562244 161.804313,18.2981987 L159.73806,17.985609 C159.350286,17.9275833 159.350286,17.8330577 159.73806,17.7740962 L161.804313,17.4624423 C162.193024,17.4034808 162.308232,17.1068013 162.062829,16.8007628 L160.805843,15.2350064 C160.56044,14.9280321 160.609146,14.8793654 160.915431,15.1236346 L162.500245,16.3964551 C162.807467,16.6407244 163.095019,16.5246731 163.145598,16.1362756 L163.473426,13.5616218 C163.523069,13.1713526 163.603621,13.1713526 163.653263,13.5616218 L163.982028,16.1362756 C164.031671,16.525609 164.320159,16.6407244 164.625508,16.3964551 L166.211259,15.1245705 C166.518481,14.8793654 166.567186,14.9280321 166.320847,15.2350064 L165.063861,16.8007628 C164.819395,17.1068013 164.934603,17.4034808 165.322376,17.4624423 L167.389567,17.7740962 C167.77734,17.8330577 167.77734,17.9275833 167.389567,17.985609" id="Fill-14" fill="#BD9B68"></path>
                    <path d="M18.2787557,11.7136923 C17.7420543,11.9757436 17.0985747,12.6991923 16.8325656,13.3140769 L9.82547511,29.5968205 C9.56133937,30.2117051 9.67654751,30.7470385 10.0858643,30.7835385 C10.4942443,30.8209744 11.0403122,30.3427308 11.304448,29.7278462 L18.7798643,12.3650769 C19.0449367,11.7501923 18.8173303,11.451641 18.2787557,11.7136923" id="Fill-16" fill="#BD9B68"></path>
                    <path d="M11.8903235,14.3744487 C11.1887715,14.3622821 10.4666131,14.2284487 9.77536425,13.9710769 C9.23116968,13.769859 8.72818778,13.4984487 8.28140498,13.1643333 L5.9304095,11.4085897 C5.29161312,10.9303462 4.91507919,10.2724103 4.8954095,9.6004359 C4.88885294,9.37862821 4.9206991,9.16711538 4.98813801,8.96870513 C5.1314457,8.54755128 5.38527828,8.00566667 4.00090724,8.77029487 C3.36023756,9.1259359 3.00430995,9.72678205 3.02491629,10.4212179 C3.04364932,11.0931923 3.42111991,11.7501923 4.05710633,12.2284359 L6.4043552,13.9832436 C6.85207466,14.3164231 7.35411991,14.5887692 7.89737783,14.7899872 C9.20775339,15.2757179 10.6258439,15.3197051 11.8163281,14.9416026 C12.4841606,14.7291538 12.6808575,14.3894231 11.8903235,14.3744487" id="Fill-18" fill="#BD9B68"></path>
                    <path d="M35.8534303,20.8668628 C41.5941679,14.1255936 39.2984348,10.1573885 35.5846113,8.78068333 C32.3494167,7.57899103 30.9247697,8.56636282 33.6757154,9.58649103 C35.4413036,10.2416192 36.6683172,11.3768628 37.4260683,13.0558628 C38.0873443,14.5224141 37.1019869,17.95435 33.9389145,21.6717346 C31.4558511,24.5917346 33.0003896,24.2155038 35.8534303,20.8668628" id="Fill-20" fill="#BD9B68"></path>
                    <path d="M47.7152796,71.0468756 C46.3009357,71.2752346 44.7592072,71.4156192 43.1350534,71.4605423 L42.8652977,71.4652218 C42.5636959,71.4689654 42.2620941,71.4736449 41.9520624,71.4689654 L41.8574606,71.4670936 C41.4884199,71.4624141 41.1146959,71.4567987 40.778438,71.4399526 C40.0637729,71.4193628 39.2479493,71.35385 38.3824833,71.24435 C36.1991484,70.9748115 34.0598362,70.4404141 32.0282389,69.6533244 C30.944533,69.2340423 29.8870534,68.7398885 28.8895195,68.1849013 C25.8875511,66.5227474 23.2527502,64.2195038 21.2717321,61.5213115 C19.4471348,59.0608372 18.0505873,56.142709 17.2403837,53.0832603 C16.5697412,50.5928372 16.2419131,48.0060167 16.2391032,45.1814782 C16.2391032,43.1196962 16.4208136,41.0195423 16.7954742,38.7574782 C17.013714,37.4893372 14.9942932,39.5118115 14.7245376,40.9091064 C14.4856914,42.6667218 14.3676733,44.3391705 14.36861,45.9854141 C14.3704833,48.8090167 14.696438,51.3949013 15.3652072,53.8843885 C16.1735376,56.9429013 17.5654018,59.8619654 19.3871891,62.3205679 C21.3644606,65.0159526 23.9955149,67.3191962 26.9928,68.9776064 C27.9903339,69.5325936 29.0450036,70.0258115 30.1287095,70.4460295 L30.1296462,70.4460295 C32.1556235,71.2303115 34.2911891,71.764709 36.4735873,72.0333115 C37.3381167,72.1418756 38.1501937,72.2083244 38.8657955,72.2289141 C39.2020534,72.2438885 39.5748407,72.2495038 39.9420081,72.2551192 L40.0394199,72.2560551 C40.3466416,72.2607346 40.6473068,72.2560551 40.9498452,72.2523115 L41.2205376,72.2466962 C42.8418814,72.2017731 44.3817367,72.0604526 45.7942072,71.8311577 C48.5573294,71.3969013 49.7993294,70.7202474 47.7152796,71.0468756" id="Fill-22" fill="#BD9B68"></path>
                    <path d="M2.94108597,57.6912449 L2.40344796,56.4390141 C1.66255656,54.7178987 1.71875566,51.9906936 2.53645249,50.0917577 L8.02523077,37.3467064 C8.28842986,36.7318218 8.12545249,35.9157192 7.70489593,35.4805269 C7.42015385,35.1866551 7.16725792,34.8974628 6.97149774,34.6672321 C5.20497285,32.5820526 5.33610407,31.8155526 5.39230317,31.4889244 C5.39885973,31.4496167 5.40822624,31.410309 5.41852941,31.3710013 C5.43632579,31.3082962 5.40822624,31.2502705 5.35015385,31.2409115 C5.31456109,31.2362321 5.27896833,31.2315526 5.24524887,31.2250013 C4.35730317,31.0761936 3.64451131,31.5226167 3.51244344,32.3078346 C3.457181,32.6344628 3.32604977,33.3981551 5.08882805,35.4833346 C5.28365158,35.7154372 5.53654751,36.0018218 5.82128959,36.2956936 C6.2409095,36.7308859 6.40388688,37.5479244 6.13881448,38.162809 L0.653782805,50.9078603 C-0.162977376,52.8058603 -0.221049774,55.5349372 0.517031674,57.2541808 L1.05560633,58.5064115 C1.31786878,59.1184885 1.76277828,59.5658474 2.30697285,59.7680013 C2.66758371,59.9018346 3.11342986,59.9317833 3.54709955,59.7698731 C4.17840271,59.5321551 4.4050724,59.0174115 4.33014027,58.9968218 C4.285181,58.9846551 4.24022172,58.9706167 4.19713575,58.9537705 C3.64919457,58.7516167 3.20522172,58.3033218 2.94108597,57.6912449" id="Fill-24" fill="#BD9B68"></path>
                    <path d="M57.9461376,71.2173026 C57.5077846,70.9880077 57.0834814,70.7175333 56.635762,70.4545462 C56.0091421,70.0792513 55.3469294,69.7058282 54.6266443,69.4100846 C53.9091692,69.1152769 53.1326851,68.895341 52.3065584,68.8391872 C51.6715086,68.7989436 50.9830697,68.8504179 50.3358434,69.0834564 C50.0295584,69.1929564 49.9396398,69.5738667 50.1588163,69.8377897 C50.4744679,70.2177641 50.8547484,70.537841 51.318391,70.8260974 C51.9693638,71.2285333 52.7786308,71.5589051 53.65721,71.7891359 C54.5348525,72.016559 55.4855538,72.143841 56.3613231,72.107341 C56.9664,72.0839436 57.5396308,71.9669564 57.9845403,71.7741615 C58.2852054,71.6440718 58.2421195,71.3717256 57.9461376,71.2173026" id="Fill-26" fill="#BD9B68"></path>
                    <path d="M62.1074932,68.5594474 C60.9750814,68.4190628 59.9990905,67.8734346 58.8170362,67.4541526 C58.126724,67.2089474 57.360543,66.993691 56.511,66.9553192 C56.2993167,66.9450244 56.0848235,66.9478321 55.8628371,66.9712295 C55.7513756,66.9796526 55.6445973,66.9899474 55.5331357,67.0077295 C55.4207376,67.0292551 55.309276,67.0545244 55.2015611,67.0816654 C54.9542851,67.139691 54.707009,67.2379603 54.4794027,67.3661782 C54.1946606,67.5290244 54.193724,67.9174218 54.4475566,68.1448449 C54.7988009,68.4602423 55.1556652,68.7288449 55.6005747,68.983409 C56.2243846,69.3399859 57.0214751,69.6703577 57.9459502,69.8781269 C58.8601222,70.0849603 59.9101086,70.1429859 60.8205339,69.9005885 C60.9338688,69.8697038 61.0443937,69.8416269 61.1521086,69.8051269 C61.2588869,69.7620756 61.3619186,69.7171526 61.4630769,69.6703577 C61.5614253,69.6244987 61.6569638,69.5805115 61.747819,69.5318449 C61.8368009,69.4719474 61.9220362,69.41205 62.0025882,69.3549603 C62.1524525,69.2557551 62.2789005,69.1368962 62.3894253,69.0133577 C62.5795656,68.7990372 62.4353213,68.6015628 62.1074932,68.5594474" id="Fill-28" fill="#BD9B68"></path>
                    <path d="M66.0566036,65.4393526 C65.5508118,65.4505833 65.0478299,65.4150192 64.5542145,65.3476346 C63.8629656,65.2559167 63.17921,65.1099167 62.4570516,64.9919936 C61.7358299,64.8750064 60.9752688,64.7823526 60.1594452,64.8066859 C59.5262688,64.8291474 58.8406398,64.91525 58.1812371,65.1576474 C57.8730787,65.2690192 57.7822235,65.6415064 58.0088932,65.8998141 C58.3470244,66.2835321 58.7750742,66.6045449 59.3014724,66.8694038 C60.0395538,67.2400192 60.9715222,67.5001987 61.9812326,67.5488654 C62.9843864,67.6012756 64.0568525,67.424391 64.915762,67.0023013 C65.5217756,66.7159167 65.9957213,66.3125449 66.3169928,65.9129167 C66.5268027,65.6527372 66.3853683,65.4318654 66.0566036,65.4393526" id="Fill-30" fill="#BD9B68"></path>
                    <path d="M69.0230729,61.2251 C69.0839552,60.9265487 68.866652,60.8367026 68.5734801,60.9798949 C68.1473036,61.1829846 67.7023941,61.288741 67.2546747,61.3411513 C66.6186882,61.4160231 65.9452357,61.4178949 65.2137109,61.4806 C64.4887425,61.5461128 63.7028919,61.6640359 62.9048647,61.9756897 C62.511471,62.1310487 62.1105842,62.3360103 61.7424801,62.6167795 C61.559833,62.7440615 61.3846792,62.9246897 61.229195,63.0903436 C61.1495796,63.1755103 61.0783941,63.2719077 61.0137652,63.3701769 C60.9060502,63.5330231 61.0755842,63.7922667 61.3884258,63.9111256 C61.831462,64.0758436 62.2707516,64.1872154 62.7915299,64.245241 C63.5174348,64.3257282 64.3922674,64.300459 65.328919,64.1039205 C66.2552674,63.9148692 67.2668511,63.5143051 68.0133624,62.8470103 C68.1988195,62.6785487 68.3683534,62.5157026 68.5051045,62.3163564 C68.57629,62.2218308 68.6399824,62.128241 68.7008647,62.0393308 C68.7608104,61.9466769 68.8029597,61.836241 68.8469824,61.7407795 C68.9350276,61.5704462 68.9874801,61.3944974 69.0230729,61.2251" id="Fill-32" fill="#BD9B68"></path>
                    <path d="M64.8368959,59.1585449 C64.7057647,59.321391 64.5905566,59.5254167 64.4893982,59.7154038 C64.4406923,59.8136731 64.398543,59.9175577 64.3620136,60.0233141 C64.3001946,60.197391 64.5203077,60.4248141 64.8443891,60.4819038 C65.2752489,60.5586474 65.6939321,60.57175 66.1622579,60.5155962 C66.4938326,60.4725449 66.8666199,60.3845705 67.2515837,60.2479295 C67.6431041,60.0991218 68.0533575,59.9100705 68.4570543,59.62275 C68.8607511,59.3569551 69.2372851,58.9769808 69.5501267,58.5745449 C69.6934344,58.3536731 69.8358054,58.1430962 69.9425837,57.9156731 C70.0409321,57.6835705 70.1449005,57.4645705 70.2020362,57.2352756 C70.3809367,56.6222628 70.38,56.0504295 70.3050679,55.5759295 C70.2498054,55.2315192 69.984733,55.1716218 69.7655566,55.4215064 C69.4667647,55.7640449 69.159543,56.08225 68.828905,56.3358782 C68.3549593,56.7074295 67.8950633,56.9554423 67.3911448,57.2296603 C66.8937828,57.5066859 66.3036923,57.807109 65.699552,58.2872244 C65.4016968,58.52775 65.0954118,58.8113269 64.8368959,59.1585449" id="Fill-34" fill="#BD9B68"></path>
                    <path d="M61.9931281,57.7590974 C61.9837615,58.1053795 62.159852,58.3824051 62.3499923,58.3187641 C62.4642638,58.2813282 62.5719787,58.2307897 62.681567,58.1662128 C62.8941869,58.0258282 63.11149,57.8320974 63.2866439,57.5719179 C63.6538113,57.0721487 63.8823543,56.3065846 63.9067072,55.5719051 C63.9376167,54.8325462 63.8149154,54.2270205 63.7914991,53.6944949 C63.7690195,53.3912641 63.7774493,53.0889692 63.7896258,52.8035205 C63.8083588,52.4581744 63.590119,52.3131103 63.3484629,52.5386615 C63.1058701,52.7660846 62.8801371,53.0459179 62.7077932,53.3903282 C62.4164946,53.9509308 62.2994131,54.587341 62.2188611,55.1105077 C62.141119,55.6439692 62.0999063,56.1053667 62.0568204,56.6266615 C62.0296575,56.9776231 62.0015579,57.3501103 61.9931281,57.7590974" id="Fill-36" fill="#BD9B68"></path>
                    <path d="M60.8221262,54.6793397 C60.7921534,54.3321218 60.5514339,54.2179423 60.3331941,54.4678269 C60.0709317,54.7673141 59.8367688,55.1276346 59.6606783,55.5338141 C59.3853027,56.1524423 59.244805,56.8384551 59.1605063,57.4346218 C59.0790176,58.0401474 59.0368683,58.5249423 58.9816059,59.0565321 C58.9478864,59.430891 58.8888774,59.8454936 58.8167552,60.3171859 C58.7614928,60.6569167 58.9057371,60.9741859 59.1389633,60.9517244 C59.2719679,60.9376859 59.4096557,60.9058654 59.5445335,60.8562628 C59.8189724,60.7383397 60.1037145,60.5474167 60.3453706,60.2600962 C60.59171,59.9774551 60.7874701,59.6040321 60.9270312,59.1959808 C61.0525425,58.7898013 61.1246647,58.3489936 61.1312213,57.94375 C61.1546376,57.1126731 61.0225697,56.4173013 60.9429543,55.7855705 C60.8867552,55.398109 60.8530357,55.0274936 60.8221262,54.6793397" id="Fill-38" fill="#BD9B68"></path>
                    <path d="M58.2080253,56.4045731 C58.2426814,56.0610987 58.0300615,55.9188423 57.773419,56.1266115 C57.4502742,56.3877269 57.1374326,56.7096756 56.8751701,57.1027526 C56.4855231,57.6867526 56.2120208,58.4008423 56.0705864,59.0980859 C55.9263421,59.8018808 55.9010525,60.4532654 55.9001158,61.0466244 C55.8963692,61.4705859 55.9122923,61.8926756 55.8635864,62.3765346 C55.8308036,62.7209449 55.8635864,63.012009 55.9797312,63.0110731 C56.0471701,63.0101372 56.1183557,63.0045218 56.1876679,62.993291 C56.2616633,62.9811244 56.3365955,62.9652141 56.410591,62.9408808 C56.4808398,62.9137397 56.5520253,62.8791115 56.6222742,62.8398038 C56.7655819,62.7611885 56.9145095,62.6591756 57.0362742,62.5253423 C57.0990299,62.4598295 57.1636588,62.3896372 57.2273511,62.3147654 C57.2854235,62.2380218 57.3369394,62.1556628 57.3893919,62.0723679 C57.6085683,61.7298295 57.7415729,61.333009 57.8436679,60.9296372 C57.9335864,60.5337526 57.9851023,60.1247654 58.0132018,59.7475987 C58.0656543,58.9801628 58.0562878,58.2707526 58.1012471,57.6015859 C58.1218534,57.1794962 58.1677493,56.7770603 58.2080253,56.4045731" id="Fill-40" fill="#BD9B68"></path>
                    <path d="M54.9856629,58.5466551 C54.9285271,58.2022449 54.6803145,58.1245654 54.482681,58.3950397 C54.2522647,58.7160526 54.0396448,59.0716936 53.8523145,59.4366936 C53.5638258,59.9963603 53.3259163,60.5784885 53.1310928,61.139091 C52.9353326,61.7034372 52.786405,62.2397064 52.6505905,62.7928218 C52.5531787,63.1858987 52.4613869,63.5967577 52.3358756,64.0572192 C52.2468937,64.3885269 52.4267308,64.7507192 52.7517489,64.7142192 C53.1282828,64.6730397 53.5263597,64.4896038 53.8738575,64.1573603 C54.4199253,63.6538474 54.7992692,62.8536551 54.9791063,62.0543987 C55.1617534,61.248591 55.1748665,60.445591 55.1270973,59.7436679 C55.0952511,59.3084756 55.0446719,58.9069756 54.9856629,58.5466551" id="Fill-42" fill="#BD9B68"></path>
                    <path d="M51.7675154,60.3782064 C51.6897733,60.0384756 51.4097145,59.9617321 51.2045878,60.226591 C50.6669498,60.9322577 50.2398367,61.8288474 49.9775742,62.6196808 C49.6750357,63.4591808 49.6132167,64.0937192 49.3434611,65.0801551 C49.2516692,65.4114628 49.4165199,65.8129628 49.7434113,65.8213859 C50.0955923,65.829809 50.4730629,65.7043987 50.8177507,65.4273731 C51.3694385,64.9949885 51.7515923,64.2266167 51.8967733,63.4891295 C52.0466376,62.7460269 52.0176014,62.0356808 51.9454792,61.4086295 C51.8995833,61.0380141 51.8396376,60.6926679 51.7675154,60.3782064" id="Fill-44" fill="#BD9B68"></path>
                    <path d="M68.929876,50.6402872 C68.8577538,50.2986846 68.5552154,50.2284923 68.3126226,50.4549795 C68.0250706,50.7207744 67.7300253,50.9856333 67.4471566,51.2654667 C67.0144235,51.6884923 66.6013602,52.1405308 66.2482425,52.6365564 C65.8941882,53.1316462 65.6038262,53.671659 65.3977629,54.273441 C65.2928579,54.5757359 65.2094959,54.8930051 65.142057,55.2327359 C65.1120842,55.4086846 65.0746181,55.5715308 65.0483919,55.7596462 C65.0334054,55.8541718 65.018419,55.9477615 65.0034326,56.044159 C64.975333,56.2004538 65.2132425,56.4381718 65.5391973,56.4596974 C66.0206362,56.4896462 66.5114416,56.3427103 66.9348081,56.0703641 C67.5408217,55.6875821 68.0372471,55.0661462 68.3884914,54.3548641 C68.7369258,53.6435821 68.9476724,52.8368385 69.0048081,52.0675308 C69.0460208,51.5612103 69.0188579,51.0679923 68.929876,50.6402872" id="Fill-46" fill="#BD9B68"></path>
                    <path d="M106.7425,46.5200923 C105.943537,45.6085282 105.619455,44.7334641 105.780559,43.9201692 C105.909817,43.2697205 104.594758,44.0371564 104.401808,45.0114256 C104.241641,45.8247205 104.564786,46.6997846 105.363749,47.6122846 C113.865736,57.4841308 122.06612,58.960041 126.196754,58.960041 C128.178709,58.960041 130.051075,58.6268615 131.704265,58.0082333 C134.101157,57.1125795 134.050577,56.7232462 131.796994,57.3287718 C130.481935,57.6816051 129.059161,57.8678487 127.575505,57.8678487 C123.443935,57.8678487 115.244487,56.3928744 106.7425,46.5200923" id="Fill-48" fill="#BD9B68"></path>
                    <path d="M131.256733,48.7646551 C131.501199,48.9733603 131.704452,49.2522577 131.796244,49.5788859 C131.943299,50.098309 132.036964,50.4155782 132.360109,50.2358859 C132.683253,50.0561936 133.29676,49.4094885 133.229321,48.7393859 C133.184362,48.3032577 132.940833,47.9326423 132.635484,47.6724628 C131.604231,46.8030141 130.022226,45.8147064 128.192009,44.6691679 C122.664828,41.2119628 115.09481,36.4781936 114.48505,29.4439885 C114.024217,24.1477449 116.450145,18.8412064 120.392511,14.0980782 C121.008828,13.3559115 119.815534,13.4214244 118.997837,14.3591936 C114.397005,19.6329756 112.645466,25.2390013 113.106299,30.5361808 C113.716995,37.56945 121.286077,42.3041551 126.813258,45.7613603 C128.643475,46.9059628 130.22548,47.8952064 131.256733,48.7646551" id="Fill-50" fill="#BD9B68"></path>
                    <path d="M138.128758,31.0833064 C134.849541,27.8703705 135.55484,23.7711397 136.262948,21.624191 C136.704111,20.2521654 137.796247,18.7313321 138.533392,17.2601013 C138.914609,16.4992167 139.304256,15.7233577 139.637704,14.9858705 C139.930876,14.3391654 139.617098,13.630691 138.850917,14.7584474 C138.045396,15.9442295 135.202659,20.1716782 134.580722,22.5891013 C134.013111,24.7903321 133.47079,28.9616269 136.750007,32.1754987 C137.414093,32.8259474 138.060383,33.1422808 138.727279,33.1422808 C139.117862,33.1422808 139.466297,33.0355885 139.771645,32.8240756 C140.150052,32.5620244 140.115396,32.1099859 139.624591,31.9948705 C139.125356,31.8778833 138.630804,31.5765244 138.128758,31.0833064" id="Fill-52" fill="#BD9B68"></path>
                    <path d="M85.1728195,67.1496115 L83.3800683,67.1496115 L83.3800683,68.7003936 L85.2233986,68.7003936 C85.908091,68.7003936 86.3211543,68.4589321 86.3211543,67.9348295 L86.3211543,67.9142397 C86.3211543,67.4416115 85.9689733,67.1496115 85.1728195,67.1496115 L85.1728195,67.1496115 Z M85.9286973,65.0962526 C85.9286973,64.6339192 85.5662131,64.3709321 84.910557,64.3709321 L83.3800683,64.3709321 L83.3800683,65.8608808 L84.8103353,65.8608808 C85.4950276,65.8608808 85.9286973,65.640009 85.9286973,65.1168423 L85.9286973,65.0962526 Z M81.8683127,63.0129449 L85.1428466,63.0129449 C85.948367,63.0129449 86.5834167,63.2338167 86.9861769,63.6371885 C87.3083851,63.9591372 87.4694891,64.3512782 87.4694891,64.8351372 L87.4694891,64.854791 C87.4694891,65.6503038 87.0470593,66.0929833 86.5431407,66.3746885 C87.3589643,66.6872782 87.8628828,67.1599064 87.8628828,68.1060987 L87.8628828,68.1266885 C87.8628828,69.4144833 86.8147697,70.0593167 85.2233986,70.0593167 L81.8683127,70.0593167 L81.8683127,63.0129449 Z" id="Fill-54" fill="#C3996B"></path>
                    <path d="M92.5181348,66.435241 C93.2740127,66.435241 93.7067457,66.0328051 93.7067457,65.4385103 L93.7067457,65.4179205 C93.7067457,64.7543692 93.2431032,64.4118308 92.4872253,64.4118308 L90.9464335,64.4118308 L90.9464335,66.435241 L92.5181348,66.435241 Z M89.3953385,63.0126641 L92.6192932,63.0126641 C93.5156688,63.0126641 94.2106643,63.2644205 94.6743068,63.7276897 C95.0667638,64.1198308 95.2784471,64.6738821 95.2784471,65.3374333 L95.2784471,65.3580231 C95.2784471,66.4960744 94.6640036,67.2101641 93.7676281,67.5424077 L95.4901303,70.0590359 L93.6767729,70.0590359 L92.1650172,67.804459 L90.9464335,67.804459 L90.9464335,70.0590359 L89.3953385,70.0590359 L89.3953385,63.0126641 Z" id="Fill-56" fill="#C3996B"></path>
                    <polygon id="Fill-58" fill="#C3996B" points="96.9321054 63.0126641 102.25135 63.0126641 102.25135 64.3921769 98.4728973 64.3921769 98.4728973 65.8212923 101.79801 65.8212923 101.79801 67.1998692 98.4728973 67.1998692 98.4728973 68.6795231 102.301929 68.6795231 102.301929 70.0590359 96.9321054 70.0590359"></polygon>
                    <polygon id="Fill-60" fill="#C3996B" points="103.39088 63.0126641 105.0525 63.0126641 106.513676 67.7838692 108.095681 62.9920744 109.425726 62.9920744 111.006794 67.7838692 112.467971 63.0126641 114.089314 63.0126641 111.68212 70.1095744 110.331468 70.1095744 108.740097 65.4984077 107.148726 70.1095744 105.799011 70.1095744"></polygon>
                    <mask id="mask-4" fill="white">
                        <use xlink:href="#path-3"></use>
                    </mask>
                    <g id="Clip-63"></g>
                    <polygon id="Fill-62" fill="#C3996B" mask="url(#mask-4)" points="115.563136 70.0588487 117.114231 70.0588487 117.114231 63.0124769 115.563136 63.0124769"></polygon>
                    <polygon id="Fill-64" fill="#C3996B" mask="url(#mask-4)" points="119.129624 63.0126641 120.559891 63.0126641 123.864398 67.3505487 123.864398 63.0126641 125.395823 63.0126641 125.395823 70.0590359 124.076081 70.0590359 120.661049 65.5788949 120.661049 70.0590359 119.129624 70.0590359"></polygon>
                    <path d="M127.029812,66.5559718 L127.029812,66.5353821 C127.029812,64.5325615 128.59121,62.8919333 130.726776,62.8919333 C131.995938,62.8919333 132.762119,63.2344718 133.497391,63.8587154 L132.520463,65.0360744 C131.976269,64.5831 131.49202,64.3210487 130.676196,64.3210487 C129.547531,64.3210487 128.651156,65.3177795 128.651156,66.5157282 L128.651156,66.5353821 C128.651156,67.8241128 129.538165,68.7703051 130.787658,68.7703051 C131.351522,68.7703051 131.855441,68.6299205 132.247898,68.3482154 L132.247898,67.3411897 L130.6865,67.3411897 L130.6865,66.0028564 L133.74935,66.0028564 L133.74935,69.0623051 C133.023445,69.6762538 132.026848,70.1797667 130.737079,70.1797667 C128.540631,70.1797667 127.029812,68.6392795 127.029812,66.5559718" id="Fill-65" fill="#C3996B" mask="url(#mask-4)"></path>
                    <path d="M138.455369,66.5559718 L138.455369,66.5353821 C138.455369,64.5325615 139.967124,62.8919333 142.132663,62.8919333 C143.462708,62.8919333 144.257925,63.3346128 144.913581,63.9794462 L143.925414,65.1165615 C143.382156,64.6233436 142.827658,64.3210487 142.12236,64.3210487 C140.933749,64.3210487 140.077649,65.3074846 140.077649,66.5157282 L140.077649,66.5353821 C140.077649,67.7436256 140.913143,68.7506513 142.12236,68.7506513 C142.92788,68.7506513 143.422432,68.4287026 143.975993,67.9251897 L144.964161,68.9209846 C144.238256,69.6968436 143.432735,70.1797667 142.072717,70.1797667 C139.997097,70.1797667 138.455369,68.5793821 138.455369,66.5559718" id="Fill-66" fill="#C3996B" mask="url(#mask-4)"></path>
                    <path d="M151.815205,66.5559718 L151.815205,66.5353821 C151.815205,65.3280744 150.929133,64.3210487 149.679639,64.3210487 C148.430146,64.3210487 147.563743,65.3074846 147.563743,66.5157282 L147.563743,66.5353821 C147.563743,67.7436256 148.450752,68.7506513 149.699309,68.7506513 C150.948802,68.7506513 151.815205,67.7642154 151.815205,66.5559718 M145.9424,66.5559718 L145.9424,66.5353821 C145.9424,64.5325615 147.523467,62.8919333 149.699309,62.8919333 C151.876087,62.8919333 153.437486,64.5129077 153.437486,66.5157282 L153.437486,66.5353821 C153.437486,68.5391385 151.855481,70.1797667 149.679639,70.1797667 C147.503798,70.1797667 145.9424,68.5587923 145.9424,66.5559718" id="Fill-67" fill="#C3996B" mask="url(#mask-4)"></path>
                    <polygon id="Fill-68" fill="#C3996B" mask="url(#mask-4)" points="155.070912 63.0126641 156.742835 63.0126641 158.596469 65.9925615 160.450102 63.0126641 162.122962 63.0126641 162.122962 70.0590359 160.581233 70.0590359 160.581233 65.4581641 158.596469 68.4689462 158.556193 68.4689462 156.592034 65.4890487 156.592034 70.0590359 155.070912 70.0590359"></polygon>
                    <path d="M166.849306,66.5662667 C167.624853,66.5662667 168.078193,66.1029974 168.078193,65.4984077 L168.078193,65.4787538 C168.078193,64.7843179 167.594881,64.4118308 166.819333,64.4118308 L165.620419,64.4118308 L165.620419,66.5662667 L166.849306,66.5662667 Z M164.068387,63.0126641 L166.950464,63.0126641 C168.63269,63.0126641 169.649894,64.0093949 169.649894,65.4488051 L169.649894,65.468459 C169.649894,67.0997282 168.380731,67.9448436 166.798727,67.9448436 L165.620419,67.9448436 L165.620419,70.0590359 L164.068387,70.0590359 L164.068387,63.0126641 Z" id="Fill-69" fill="#C3996B" mask="url(#mask-4)"></path>
                    <path d="M174.396189,67.1093679 L173.459537,64.8248423 L172.521949,67.1093679 L174.396189,67.1093679 Z M172.764542,62.9624064 L174.194809,62.9624064 L177.217383,70.0593167 L175.595103,70.0593167 L174.950686,68.4785859 L171.968388,68.4785859 L171.323971,70.0593167 L169.741967,70.0593167 L172.764542,62.9624064 Z" id="Fill-70" fill="#C3996B" mask="url(#mask-4)"></path>
                    <polygon id="Fill-71" fill="#C3996B" mask="url(#mask-4)" points="178.558481 63.0126641 179.988748 63.0126641 183.293255 67.3505487 183.293255 63.0126641 184.82468 63.0126641 184.82468 70.0590359 183.504938 70.0590359 180.089906 65.5788949 180.089906 70.0590359 178.558481 70.0590359"></polygon>
                    <polygon id="Fill-72" fill="#C3996B" mask="url(#mask-4)" points="188.755432 67.2807308 186.045699 63.0130385 187.859057 63.0130385 189.540346 65.8413205 191.253482 63.0130385 193.01626 63.0130385 190.306527 67.2507821 190.306527 70.0594103 188.755432 70.0594103"></polygon>
                </g>
            </g>
        </g>
    </g>
</svg>